<?xml version="1.0" standalone="no"?>
<!DOCTYPE svg PUBLIC "-//W3C//DTD SVG 1.1//EN" "http://www.w3.org/Graphics/SVG/1.1/DTD/svg11.dtd" >
<svg xmlns="http://www.w3.org/2000/svg">
<metadata>Generated by IcoMoon</metadata>
<defs>
<font id="sageframe" horiz-adv-x="1024">
<font-face units-per-em="1024" ascent="960" descent="-64" />
<missing-glyph horiz-adv-x="1024" />
<glyph unicode="&#x20;" d="" horiz-adv-x="512" />
<glyph unicode="&#xe600;" d="M537.465 820.754c0 0-402.644-368.045-402.644-400.961v-411.391c0-32.901 25.331-59.602 56.563-59.602h167.87c-0.834 5.275-1.296 10.758-1.296 16.346v228.307c0 43.778 26.687 79.301 59.602 79.301h225.163c32.901 0 59.588-35.523 59.588-79.301v-228.307c0-5.588-0.462-11.056-1.281-16.346h167.826c31.247 0 56.578 26.702 56.578 59.602v411.406c0 32.915-387.967 400.946-387.967 400.946zM1060.983 472.706l-212.691 209.279c0.313 1.922 0.76 3.785 0.76 5.767v144.089c0 24.973-26.672 45.223-59.602 45.223h-33.511c-32.93 0-59.617-20.25-59.617-45.223l0.060-0.358-132.094 129.948c-0.894 0.879-1.892 1.52-2.846 2.28-1.028 0.864-2.041 1.818-3.159 2.548-1.058 0.73-2.205 1.237-3.353 1.818-1.162 0.626-2.339 1.341-3.561 1.833-1.132 0.462-2.28 0.7-3.427 1.043-1.326 0.387-2.623 0.879-3.949 1.132-1.103 0.209-2.22 0.238-3.353 0.343-1.43 0.149-2.831 0.373-4.217 0.373-1.103 0-2.175-0.194-3.263-0.298-1.46-0.119-2.921-0.164-4.351-0.447-1.073-0.209-2.086-0.581-3.114-0.879-1.445-0.402-2.846-0.745-4.232-1.311-1.073-0.432-2.071-1.073-3.129-1.594-1.281-0.641-2.563-1.222-3.755-2.026-1.058-0.685-2.012-1.594-3.025-2.429-0.983-0.79-2.056-1.475-2.98-2.384l-496.712-488.725c-15.631-15.377-15.854-40.559-0.447-56.19 7.778-7.912 18.045-11.876 28.311-11.876 10.043 0 20.131 3.8 27.879 11.429l468.818 461.293 468.833-461.278c7.748-7.629 17.806-11.429 27.864-11.429 10.267 0 20.548 3.964 28.296 11.876 15.407 15.631 15.199 40.798-0.432 56.175z" horiz-adv-x="1260" />
<glyph unicode="&#xe601;" d="M684.99 586.333c-55.648-97.55-127.061-163.934-252.902-163.934-125.826 0-197.284 66.369-252.902 163.934-86.74-67.046-179.186-163.512-179.186-270.91 0-307 193.444-366.623 432.073-366.623 238.644 0 432.088 59.623 432.088 366.623 0 107.397-92.461 203.863-179.171 270.91zM684.99 734.683c0-131.517-113.228-238.132-252.902-238.132s-252.902 106.615-252.902 238.132c0 131.517 113.228 238.132 252.902 238.132 139.674 0 252.902-106.615 252.902-238.132z" horiz-adv-x="864" />
<glyph unicode="&#xe602;" d="M1023.857 483.104c-0.314 25.407-21.127 45.75-46.534 45.479l-28.874-0.342c-5.207 33.852-14.365 66.364-26.819 97.206l25.478 14.993c21.883 12.882 29.216 41.042 16.334 62.954l-18.117 30.857c-12.896 21.898-41.071 29.216-62.968 16.363l-25.35-14.908c-21.042 26.22-45.008 49.944-71.442 70.757l15.022 26.249c12.611 22.040 4.979 50.129-17.104 62.754l-31.056 17.775c-22.055 12.611-50.144 4.979-62.769-17.062l-14.922-26.106c-30.742 12.083-63.154 20.871-96.821 25.778v30.956c0 25.407-20.6 45.992-46.007 45.992h-35.792c-25.407 0-46.007-20.585-46.007-46.007v-30.956c-40.543-5.92-79.274-17.404-115.452-33.596l-17.176 26.976c-13.638 21.398-42.055 27.732-63.511 14.109l-30.158-19.23c-21.441-13.666-27.775-42.055-14.151-63.511l17.19-26.991c-25.079-21.669-47.704-46.078-67.362-72.854l-28.959 15.236c-22.468 11.798-50.286 3.181-62.112-19.316l-16.648-31.67c-11.84-22.497-3.238-50.286 19.259-62.141l28.645-15.050c-10.899-30.757-18.445-63.054-22.269-96.521l-33.039-1.17c-25.364-0.913-45.236-22.197-44.323-47.59l1.27-35.764c0.899-25.379 22.169-45.251 47.576-44.38l32.497 1.17c5.892-33.068 15.378-64.909 28.217-94.98l-27.861-17.29c-21.57-13.381-28.246-41.727-14.851-63.311l18.845-30.429c13.381-21.584 41.727-28.246 63.354-14.879l27.29 16.948c21.241-25.478 45.35-48.475 71.785-68.603l-15.421-28.474c-12.069-22.311-3.78-50.229 18.574-62.326l31.47-17.019c22.354-12.126 50.243-3.823 62.369 18.531l14.893 27.504c30.771-11.512 63.197-19.601 96.792-23.966l0.756-31.541c0.613-25.379 21.669-45.493 47.062-44.88l35.764 0.842c25.407 0.613 45.507 21.655 44.937 47.062l-0.728 30.429c33.581 5.421 65.864 14.651 96.45 27.219l15.778-26.12c13.124-21.712 41.37-28.731 63.125-15.592l30.628 18.488c21.755 13.167 28.759 41.385 15.635 63.182l-15.307 25.35c26.078 21.199 49.644 45.365 70.287 71.913l26.149-14.551c22.183-12.34 50.186-4.394 62.54 17.818l17.418 31.27c12.354 22.212 4.394 50.215-17.803 62.583l-25.364 14.123c11.955 31.013 20.514 63.696 25.179 97.634l29.501 0.328c25.407 0.3 45.75 21.113 45.45 46.534l-0.442 35.764zM512.264 200.288c-143.969 0-260.676 116.721-260.676 260.676s116.721 260.661 260.676 260.661 260.661-116.707 260.661-260.661-116.693-260.676-260.661-260.676zM643.579 460.95c0-71.562-58.013-129.575-129.575-129.575s-129.575 58.013-129.575 129.575c0 71.562 58.013 129.575 129.575 129.575 71.562 0 129.575-58.013 129.575-129.575z" />
<glyph unicode="&#xe603;" d="M618.396 521.102c-4.964-20.551-24.476-35.94-47.943-35.94-27.179 0-49.252 20.651-49.252 46.108 0 17.991 11.136 33.422 27.207 41.017-11.52 3.285-23.737 5.092-36.395 5.092-68.75 0-124.487-52.21-124.487-116.565 0-64.37 55.737-116.565 124.487-116.565 68.764 0 124.501 52.196 124.501 116.565-0.028 22.101-6.699 42.681-18.119 60.288zM998.969 515.812c-86.628 84.238-272.114 235.577-486.969 235.577-214.827 0-400.284-151.31-486.926-235.548-33.436-32.512-33.436-77.554-0.028-110.037 86.628-84.267 272.128-235.577 486.955-235.577s400.313 151.31 486.912 235.563c33.422 32.484 33.451 77.525 0.057 110.023zM512 269.013c-113.124 0-204.828 85.86-204.828 191.772s91.705 191.772 204.828 191.772 204.828-85.845 204.828-191.758-91.705-191.787-204.828-191.787z" />
<glyph unicode="&#xe604;" d="M840.433-51.2c-10.934 0-21.855 2.834-31.673 8.501l-777.088 448.64c-19.593 11.307-31.673 32.231-31.673 54.858s12.079 43.537 31.673 54.858l777.088 448.655c19.593 11.321 43.752 11.321 63.345 0 19.593-11.321 31.673-32.216 31.673-54.858v-897.324c0-22.627-12.079-43.537-31.673-54.844-9.789-5.653-20.738-8.487-31.673-8.487z" horiz-adv-x="904" />
<glyph unicode="&#xe605;" d="M1160.248 901.027c0-12.389-3.211-24.762-9.632-35.886l-508.343-880.471c-12.811-22.2-36.519-35.886-62.156-35.886-25.654 0-49.329 13.686-62.156 35.886l-508.343 880.471c-12.827 22.2-12.827 49.573 0 71.773 12.811 22.2 36.503 35.886 62.14 35.886h1016.719c25.638 0 49.329-13.686 62.14-35.886 6.422-11.092 9.632-23.497 9.632-35.886z" horiz-adv-x="1160" />
<glyph unicode="&#xe606;" d="M0 20.556c0 12.389 3.211 24.762 9.632 35.886l508.327 880.471c12.811 22.2 36.519 35.886 62.156 35.886 25.654 0 49.329-13.686 62.156-35.886l508.36-880.471c12.827-22.2 12.827-49.573 0-71.773-12.811-22.2-36.503-35.886-62.14-35.886h-1016.719c-25.638 0-49.329 13.686-62.14 35.886-6.422 11.092-9.632 23.497-9.632 35.886z" horiz-adv-x="1160" />
<glyph unicode="&#xe607;" d="M63.331 972.8c10.934 0 21.855-2.834 31.673-8.501l777.088-448.655c19.593-11.307 31.673-32.231 31.673-54.858 0-22.642-12.079-43.537-31.673-54.858l-777.088-448.655c-19.593-11.321-43.752-11.321-63.345 0-19.593 11.307-31.673 32.216-31.673 54.844v897.338c0 22.627 12.079 43.537 31.673 54.844 9.789 5.653 20.724 8.501 31.673 8.501z" horiz-adv-x="904" />
<glyph unicode="&#xe608;" d="M647.961-22.557c0-15.825-12.832-28.643-28.643-28.643h-214.822c-15.811 0-28.643 12.818-28.643 28.643v966.714c0 15.811 12.832 28.643 28.643 28.643h214.822c15.811 0 28.643-12.832 28.643-28.643v-966.714zM995.257 596.847c15.825 0 28.643-12.832 28.643-28.643v-214.822c0-15.811-12.818-28.643-28.643-28.643h-966.714c-15.811 0-28.643 12.832-28.643 28.643v214.822c0 15.811 12.832 28.643 28.643 28.643h966.714z" />
<glyph unicode="&#xe609;" d="M707.769 252.441c-15.59 0-28.265 12.676-28.265 28.294 0 11.025 6.388 20.499 15.604 25.15-6.603 2.024-13.623 3.115-20.901 3.115-39.462 0-71.475-31.998-71.475-71.475s31.998-71.475 71.475-71.475c39.506 0 71.489 31.998 71.489 71.475 0 13.551-3.862 26.17-10.408 36.979-2.842-12.618-14.054-22.064-27.519-22.064zM943.195 261.026c-14.929 15.475-30.778 30.304-47.071 44.027-52.009 43.755-132.728 95.921-221.917 95.921-116.808 0-218.615-87.653-268.945-139.92-13.752-14.298-13.752-32.773 0-47.042 50.286-52.267 152.122-139.949 268.945-139.949 89.175 0 169.908 52.167 221.917 95.921 16.336 13.752 32.156 28.553 47.028 43.999 13.767 14.283 13.767 32.744 0.043 47.042zM674.077 116.598c-66.594 0-120.569 54.004-120.569 120.584 0 66.623 53.99 120.584 120.569 120.584 66.608 0 120.598-53.976 120.598-120.584 0-66.579-53.99-120.584-120.598-120.584zM298.115 204.624c-19.222 19.982-19.222 45.793 0 65.79 70.384 73.082 212.787 195.676 376.106 195.676 83.231 0 161.108-32.529 225.377-72.35v492.929c0 47.559-38.572 86.131-86.131 86.131h-727.335c-47.559 0-86.131-38.572-86.131-86.131v-851.738c0-47.559 38.572-86.131 86.131-86.131h727.335c47.559 0 86.131 38.572 86.131 86.131v46.353c-64.283-39.807-142.16-72.336-225.377-72.336-163.362-0.014-305.78 122.593-376.106 195.676zM165.401 779.177h576.232v-71.776h-576.232v71.776zM165.401 626.064h576.232v-71.776h-576.232v71.776z" horiz-adv-x="954" />
<glyph unicode="&#xe610;" d="M772.736 972.8h-687.403c-47.132 0-85.333-38.215-85.333-85.333v-853.333c0-47.118 38.201-85.333 85.333-85.333h687.403c47.118 0 85.333 38.215 85.333 85.333v853.333c0 47.118-38.215 85.333-85.333 85.333zM724.224 548.068l-358.5-309.191c-14.35-12.501-36.096-11.008-48.597 3.314l-159.218 183.467c-12.288 14.521-10.496 36.267 4.025 48.54l65.707 55.666c14.492 12.288 36.238 10.496 48.526-4.011l79.161-91.292 267.036 230.315c14.336 12.501 36.082 10.994 48.583-3.314l56.59-64.896c12.473-14.35 11.022-36.11-3.314-48.597z" horiz-adv-x="1028" />
<glyph unicode="&#xe611;" d="M744.292 859.022v-796.444h-630.514v796.444h630.514zM772.736 972.8h-687.403c-47.132 0-85.333-38.215-85.333-85.333v-853.333c0-47.132 38.201-85.333 85.333-85.333h687.403c47.118 0 85.333 38.201 85.333 85.333v853.333c0 47.118-38.215 85.333-85.333 85.333v0z" horiz-adv-x="1028" />
<glyph unicode="&#xe612;" d="M945.915 972.8h-831.842c-62.917 0-114.073-50.906-114.073-113.5v-559.030c0-62.609 51.156-113.5 114.073-113.5h337.433l26.885-144.57c-102.194-3.362-176.608-13.685-176.608-25.916 0-8.046 0-32.376 0-40.423 0-14.977 111.401-27.076 248.835-27.076s248.835 12.099 248.835 27.076c0 8.046 0 32.376 0 40.423 0 12.231-74.414 22.539-176.623 25.916l26.899 144.57h296.188c62.888 0 114.073 50.906 114.073 113.5v559.030c-0.015 62.594-51.185 113.5-114.073 113.5zM693.836 278.539c-34.814 0-63.020 28.206-63.020 63.005 0 34.814 28.206 63.020 63.020 63.020 34.799 0 63.005-28.206 63.005-63.020 0-34.799-28.206-63.005-63.005-63.005zM877.375 282.209c-34.814 0-63.020 28.206-63.020 63.005 0 34.814 28.206 63.020 63.020 63.020 34.799 0 63.005-28.206 63.005-63.020 0-34.799-28.206-63.005-63.005-63.005z" horiz-adv-x="1094" />
<glyph unicode="&#xe613;" d="M486.357 834.93h-332.729c-28.885 0-52.395-23.495-52.395-52.38v-595.47c0-28.871 23.495-52.38 52.395-52.38h332.743c28.885 0 52.395 23.495 52.395 52.38v595.47c-0.014 28.885-23.509 52.38-52.409 52.38zM533.333 972.8h-426.667c-58.908 0-106.667-50.944-106.667-113.778v-796.444c0-62.834 47.758-113.778 106.667-113.778h426.667c58.908 0 106.667 50.944 106.667 113.778v796.444c0 62.834-47.758 113.778-106.667 113.778zM377.145-0.242h-114.276c-4.124 0-7.452 6.044-7.452 13.511 0 7.438 3.328 13.497 7.452 13.497h114.276c4.124 0 7.452-6.059 7.452-13.497 0-7.467-3.328-13.511-7.452-13.511zM593.593 131.797c0-42.084-34.233-76.331-76.331-76.331h-394.539c-42.098 0-76.331 34.247-76.331 76.331v706.034c0 42.084 34.233 76.331 76.331 76.331h394.539c42.098 0 76.331-34.247 76.331-76.331v-706.034z" horiz-adv-x="640" />
<glyph unicode="&#xe614;" d="M938.198-51.2c-21.955 0-43.924 8.381-60.672 25.13l-852.397 852.368c-33.511 33.511-33.511 87.847 0 121.358 33.511 33.511 87.847 33.511 121.358 0l852.368-852.368c33.525-33.511 33.525-87.847 0-121.344-16.734-16.763-38.703-25.144-60.658-25.144zM85.816-51.2c-21.969 0-43.924 8.381-60.686 25.144-33.511 33.511-33.511 87.847 0 121.344l852.397 852.382c33.511 33.525 87.876 33.511 121.344 0 33.525-33.511 33.525-87.847 0-121.358l-852.368-852.382c-16.763-16.748-38.732-25.13-60.686-25.13z" />
<glyph unicode="&#xe615;" d="M132.379 840.421c-176.51-176.51-176.51-463.704 0-640.228 146.157-146.143 372.39-174.87 550.169-69.862 3.124 1.84 6.105 3.894 9.186 5.819l157.326-157.34c40.023-40.009 104.908-40.009 144.931 0.029 40.023 40.009 40.023 104.893 0 144.916l-157.34 157.326c1.94 3.081 3.994 6.090 5.848 9.214 104.993 177.765 76.267 403.983-69.891 550.126-176.51 176.51-463.718 176.51-640.228 0zM719.676 362.796c-26.402-44.716-64.827-83.156-109.686-109.686-121.696-71.873-276.625-52.147-376.754 47.954-120.883 120.897-120.883 317.604 0 438.486 120.897 120.897 317.618 120.911 438.515 0 100.115-100.101 119.827-255.016 47.925-376.754zM368.581 727.512c0 0 183.171 8.201 246.044-82.015l-21.88-90.216c0.014 0.014-87.335 122.808-224.164 172.231z" />
<glyph unicode="&#xe616;" d="M540.434 790.442c-123.582-123.524-247.106-247.004-370.469-370.717-31.238-31.281-53.912-68.315-68.519-109.922-32.752-93.203-64.907-186.596-97.325-279.902-8.403-24.379-4.107-46.31 14.374-64.223 18.087-17.432 39.568-20.971 63.509-12.451 86.14 30.713 172.528 61.121 258.814 91.47 45.189 15.932 86.534 38.315 120.713 72.451 125.781 125.548 251.402 251.3 377.037 377.008 1.5 1.515 2.607 3.437 3.597 4.689-98.854 98.927-197.184 197.285-296.212 296.431-2.243-1.864-3.961-3.233-5.519-4.835zM337.105 123.44c-53.097-19.034-106.208-38.199-159.32-56.767-3.845-1.311-10.631 0.204-13.66 2.971-15.393 14.315-30.044 29.315-44.577 44.446-2.403 2.49-4.369 7.675-3.349 10.587 19.427 56.17 39.422 112.15 59.228 168.159 0.393 1.034 1.165 1.937 2.155 3.495 44.097-50.141 46.995-51.611 110.737-55.674-3.743-48.684 14.883-86.461 60.466-111.83-5.301-2.432-8.417-4.165-11.68-5.388zM592.395 586.981c13.733-13.66 26.388-26.272 39.641-39.48-1.937-2.068-4.282-4.908-6.961-7.573-84.48-84.553-168.931-169.208-253.732-253.368-6.553-6.51-16.136-11.578-25.034-13.675-11.024-2.636-19.995 4.238-25.281 13.995-5.155 9.364-5.024 19.15 0.757 28.238 2.607 4.18 6.102 7.762 9.597 11.286 84.436 84.568 168.946 169.077 253.528 253.586 2.65 2.65 5.49 5.112 7.485 6.99zM992.85 789.16c-52.281 53.65-105.349 106.587-159.101 158.664-23.869 23.024-53.752 31.179-85.922 20.053-17.010-5.883-35.111-13.063-48.437-24.699-36.99-32.417-71.708-67.456-107.286-101.504-0.466-0.422-0.466-1.413-0.466-1.442 98.694-98.796 197.256-197.3 295.95-296.008 26.519 26.17 54.408 51.844 79.835 79.704 15.524 16.981 29.49 36.247 40.34 56.534 20.752 38.81 15.437 77.679-14.913 108.699z" horiz-adv-x="1020" />
<glyph unicode="&#xe617;" d="M88.38-51.2c-15.391 6.695-32.199 11.282-45.837 20.51-28.179 19.128-42.472 47.077-42.49 81.561-0.089 112.29-0.053 224.58-0.035 336.87 0.018 116.948 0.035 233.914 0.053 350.88 0.018 3.578 0 7.155 0 11.902 15.604 0 30.162 0 44.739 0 93.303 0 186.607 0.089 279.91-0.248 4.941-0.018 11.158-2.444 14.63-5.898 56.127-55.543 111.989-111.369 167.532-167.496 3.347-3.401 4.977-9.936 4.977-15.002 0.283-160.943 0.213-321.904 0.266-482.829 0.018-5.331-0.195-10.804 1.027-15.887 3.914-16.507 19.111-26.691 36.043-24.778 17.074 1.895 29.241 15.409 29.295 33.492 0.177 55.649 0.035 111.28 0.035 166.93 0.018 85.634 0.035 171.287 0.053 256.921 0 2.249 0 4.499 0 9.334 4.339-4.074 7.155-6.624 9.848-9.281 32.040-32.040 64.168-63.991 95.942-96.297 3.064-3.135 5.544-8.431 5.544-12.734 0.319-112.627 0.407-225.253 0.213-337.88-0.071-43.8-32.89-85.015-75.468-96.049-4.8-1.24-9.529-2.657-14.311-4.003-170.631-0.018-341.316-0.018-511.965-0.018zM111.139 338.804c0-43.676 0-87.335 0-130.976 0-44.332-0.142-88.663 0.053-132.977 0.089-22.582 14.346-37.495 34.484-36.786 19.695 0.673 32.465 15.657 32.465 37.92 0 139.282 0 278.582 0 417.882 0 36.981 0.159 73.98-0.195 110.962-0.177 17.57-11.955 30.959-28.409 33.669-15.214 2.515-31.137-6.819-36.113-22.086-1.842-5.544-2.178-11.778-2.214-17.694-0.106-86.644-0.071-173.306-0.071-259.914zM378.368 337.724c-0.035 0-0.053 0-0.053 0-0.018 87.99 0.018 175.962-0.053 263.935-0.018 22.033-13.585 37.017-33.173 37.141-19.553 0.106-33.227-14.878-33.333-36.893-0.124-22.653 0-45.323 0-67.976 0-152.938-0.053-305.911 0-458.884 0.018-22.316 13.337-36.964 33.103-36.999 20.014-0.035 33.51 15.196 33.51 37.796-0.018 87.299 0 174.599 0 261.88zM272.365 972.8c37.637-9.015 69.375-27.86 95.801-56.18 13.868-14.86 28.604-28.887 42.985-43.269 98.263-98.28 196.437-196.632 294.823-294.77 24.69-24.619 42.667-52.975 48.936-87.494 4.127-22.795 3.223-46.014-3.418-68.277-3.029-10.113-9.653-19.164-14.594-28.622-186.731 186.713-371.85 371.832-557.571 557.536 10.574 10.839 25.008 15.958 40.541 18.916 2.869 0.549 5.668 1.435 8.484 2.178 14.7-0.018 29.365-0.018 44.013-0.018zM491.278 863.043c12.912 12.38 29.348 20.935 48.228 19.961 9.741-0.496 21.307-5.296 28.338-12.008 37.052-35.405 73.484-71.465 108.925-108.447 20.439-21.324 15.728-55.082-7.917-77.204-58.908 58.961-117.816 117.905-177.574 177.698z" horiz-adv-x="757" />
<glyph unicode="&#xe618;" d="M0 460.757c0-22.042 8.409-44.069 25.228-60.888l425.885-425.87c33.608-33.622 88.139-33.622 121.761 0 16.804 16.818 25.213 38.846 25.213 60.873 0 22.042-8.409 44.069-25.228 60.888l-365.025 365.025 365.025 365.025c16.818 16.818 25.228 38.846 25.228 60.888s-8.409 44.084-25.228 60.888c-16.804 16.804-38.846 25.213-60.873 25.213s-44.069-8.409-60.873-25.213l-425.885-425.885c-16.818-16.804-25.228-38.846-25.228-60.888 0 0 0-0.014 0-0.029s0-0.014 0-0.029z" horiz-adv-x="598" />
<glyph unicode="&#xe619;" d="M512.043 164.423c22.044 0 44.060 8.334 60.871 25.003l425.87 422.087c33.607 33.308 33.607 87.353 0 120.676-16.811 16.654-38.827 24.988-60.857 24.988-22.044 0-44.075-8.334-60.885-25.003l-365.028-361.742-365.013 361.756c-16.825 16.668-38.855 24.988-60.885 24.988s-44.060-8.334-60.871-25.003c-16.825-16.64-25.244-38.485-25.244-60.331s8.405-43.676 25.23-60.331l425.884-422.087c16.811-16.668 38.841-25.003 60.871-25.003 0.014 0 0.028 0 0.028 0 0.014 0 0.028 0 0.028 0z" />
<glyph unicode="&#xe620;" d="M511.986 760.292c-22.044 0-44.075-8.42-60.885-25.259l-425.87-426.539c-33.621-33.664-33.621-88.249 0-121.941 16.825-16.811 38.841-25.244 60.871-25.244 22.044 0 44.075 8.448 60.885 25.273l365.028 365.568 365.013-365.568c16.811-16.839 38.827-25.273 60.871-25.273 22.030 0 44.075 8.448 60.885 25.273 16.811 16.839 25.202 38.884 25.202 60.971 0 22.059-8.405 44.146-25.202 60.942l-425.87 426.539c-16.811 16.839-38.841 25.259-60.871 25.259-0.014 0-0.028 0-0.028 0-0.014 0-0.028 0-0.028 0z" />
<glyph unicode="&#xe621;" d="M598.087 460.829c0 22.042-8.409 44.069-25.228 60.888l-425.885 425.87c-33.608 33.622-88.139 33.622-121.761 0-16.804-16.818-25.213-38.846-25.213-60.888s8.409-44.069 25.228-60.888l365.025-365.025-365.025-365.011c-16.818-16.818-25.228-38.846-25.228-60.873 0-22.042 8.409-44.084 25.228-60.888 16.804-16.804 38.846-25.213 60.873-25.213s44.069 8.409 60.873 25.213l425.885 425.87c16.818 16.804 25.228 38.846 25.228 60.888 0 0 0 0.014 0 0.029s0 0.014 0 0.029z" horiz-adv-x="598" />
<glyph unicode="&#xe622;" d="M226.527 831.471h532.99c3.788 12.231 5.945 23.279 10.469 36.141 4.103 9.259 6.813 19.412 6.734 30.249-0.237 40.902-33.406 73.939-74.124 73.782l-419.464 1.157c-40.85 0.158-73.939-32.801-74.229-73.782 0-10.837 2.736-21.017 6.786-30.249 4.708-13.31 7.023-24.725 10.837-37.299zM979.1 192.503c-3.63 9.048-9.101 17.203-15.887 23.989-125.547 125.573-180.206 226.579-213.559 326.875-25.357 75.991-25.357 159.163 2.525 262.668h-518.26c27.461-102.952 27.382-185.809 2.183-261.511-34.326-101.322-89.038-202.433-214.506-328.032-6.813-6.786-12.284-14.862-15.966-23.989-7.497-18.123-7.444-38.509 0-56.553s21.885-32.511 39.903-39.955c9.101-3.84 18.781-5.787 28.461-5.734h339.238l15.966-111.817c0-0.026 0-0.053 0-0.053 0-0.105 0.053-0.158 0.053-0.263l0.289-1.946 0.158-0.053c2.551-15.256 29.486-27.329 62.708-27.329 33.3 0 60.235 12.073 62.734 27.329l0.105 0.053 0.184 1.236c0.026 0.368 0.21 0.631 0.21 0.973 0 0.053-0.026 0.132-0.053 0.21l15.966 111.659h339.212c9.68-0.132 19.281 1.868 28.408 5.734 9.022 3.683 17.255 9.101 24.042 15.887 6.813 6.813 12.231 15.019 15.887 24.068 7.497 18.123 7.654 38.43 0 56.553z" horiz-adv-x="985" />
<glyph unicode="&#xe623;" d="M737.37 972.8h-341.013v-317.998c0-66.287-90.287-106.007-156.527-106.007h-238.462v-479.996c0-66.287 53.712-119.999 119.999-119.999h616.003c66.263 0 119.999 53.712 119.999 119.999v784.002c0 66.287-53.76 119.999-119.999 119.999zM27.648 723.85h166.031c15.264 0 27.6 12.384 27.6 27.672v193.606c0.024 15.288-12.336 27.672-27.6 27.672h-166.031c-15.216 0-27.648-12.384-27.648-27.672v-193.606c0-15.288 12.432-27.672 27.648-27.672z" horiz-adv-x="857" />
<glyph unicode="&#xe624;" d="M698.012 416.517c-2.588 6.451-6.488 12.264-11.326 17.102-89.504 89.523-128.471 161.531-152.249 233.033-18.077 54.175-18.077 113.469 1.8 187.259h-369.474c19.577-73.396 19.521-132.465 1.556-186.434-24.472-72.233-63.476-144.317-152.924-233.858-4.857-4.838-8.757-10.595-11.383-17.102-5.344-12.92-5.307-27.453 0-40.317s15.602-23.178 28.447-28.485c6.488-2.738 13.389-4.125 20.29-4.088h241.847l56.463-394.846 56.407 394.846h241.828c6.901-0.094 13.745 1.331 20.252 4.088 6.432 2.625 12.301 6.488 17.139 11.326 4.857 4.857 8.72 10.707 11.326 17.158 5.344 12.92 5.457 27.397 0 40.317zM161.494 872.045h379.975c2.7 8.72 4.238 16.596 7.463 25.765 2.925 6.601 4.857 13.839 4.801 21.565-0.169 29.16-23.815 52.712-52.844 52.6l-299.041 0.825c-29.122 0.113-52.712-23.384-52.919-52.6 0-7.726 1.95-14.983 4.838-21.565 3.357-9.489 5.007-17.627 7.726-26.591z" horiz-adv-x="702" />
<glyph unicode="&#xe625;" d="M582.942 972.8h-269.595v-251.399c0-52.405-71.378-83.806-123.745-83.806h-188.521v-379.47c0-52.405 42.463-94.868 94.868-94.868h486.993c52.386 0 94.868 42.463 94.868 94.868v619.807c0 52.405-42.501 94.868-94.868 94.868zM174.955 797.864c0-12.086-9.771-21.876-21.82-21.876h-131.278c-12.029 0-21.857 9.79-21.857 21.876v153.059c0 12.086 9.828 21.876 21.857 21.876h131.259c12.067 0 21.82-9.79 21.82-21.876v-153.059zM814.058 747.262h-25.311v-621.382c0-41.912-33.982-75.894-75.894-75.894h-480.656v-25.311c0-41.912 33.982-75.894 75.894-75.894h505.966c41.912 0 75.894 33.982 75.894 75.894v646.693c0 41.912-33.982 75.894-75.894 75.894z" horiz-adv-x="869" />
<glyph unicode="&#xe626;" d="M408.828 586.462h-254.702l-52.331-112.324h-94.46l213.694 450.73c6.485 13.835 14.218 25.272 23.2 34.353 8.996 9.039 21.951 13.579 38.851 13.579 16.545 0 29.316-4.526 38.326-13.579 8.982-9.081 16.715-20.518 23.2-34.353l212.63-450.73h-94.985l-53.423 112.324zM192.438 670.166h178.093l-89.053 192.466-89.039-192.466zM545.814 344.318c0-15.949-7.038-29.514-21.057-40.724l-346.933-270.778h381.045v-84.030h-510.964c-15.495 0-27.329 3.987-35.559 11.976-8.23 7.96-12.331 18.404-12.331 31.345 0 16.346 7.478 30.38 22.505 42.001l354.184 270.778h-365.082v84.669h486.274c15.495 0 27.329-4.427 35.559-13.253 8.23-8.84 12.359-19.496 12.359-31.983zM959.722 690.060c-3.519-6.087-10.004-9.819-17.013-9.819h-95.495v-678.755c0-27.939-22.646-50.6-50.571-50.6-27.968 0-50.6 22.675-50.6 50.6v678.741h-95.524c-6.981 0-13.466 3.746-16.985 9.819-3.491 6.059-3.491 13.537 0 19.624l146.081 253.056c3.491 6.087 9.975 9.791 16.985 9.791s13.494-3.718 16.985-9.791l146.138-253.041c1.745-3.037 2.639-6.428 2.639-9.819s-0.894-6.783-2.639-9.805z" horiz-adv-x="962" />
<glyph unicode="&#xe627;" d="M407.226 583.949h-253.703l-52.126-111.884h-94.089l212.856 448.963c6.459 13.781 14.162 25.172 23.109 34.218 8.961 9.017 21.865 13.526 38.699 13.526 16.48 0 29.201-4.509 38.176-13.526 8.947-9.046 16.65-20.438 23.109-34.218l211.782-448.963h-94.598l-53.214 111.884zM191.684 667.338h177.394l-88.704 191.698-88.69-191.698zM543.674 342.768c0-15.886-6.996-29.398-20.975-40.564l-345.573-269.717h379.551v-83.701h-508.961c-15.434 0-27.222 3.972-35.42 11.929-8.198 7.929-12.282 18.332-12.282 31.222 0 16.282 7.449 30.261 22.416 41.836l352.796 269.717h-363.651v84.337h484.368c15.434 0 27.236-4.41 35.434-13.201 8.184-8.805 12.296-19.42 12.296-31.858zM955.959 236.509c-3.505 6.063-9.964 9.781-16.947 9.781h-95.107v676.109c-0.014 27.815-22.586 50.401-50.401 50.401-27.844 0-50.401-22.586-50.401-50.401v-676.094h-95.135c-6.968 0-13.427-3.731-16.918-9.781-3.491-6.035-3.491-13.484 0-19.547l145.494-252.064c3.491-6.063 9.95-9.752 16.932-9.752s13.427 3.703 16.918 9.752l145.551 252.050c1.738 3.025 2.629 6.403 2.629 9.781s-0.876 6.756-2.615 9.767z" horiz-adv-x="962" />
<glyph unicode="&#xe628;" d="M231.025 345.831h372.020v-47.69h-372.020v47.69zM231.025 221.82h486.488v-47.69h-486.488v47.69zM940.782 972.8h-124.598v-282.592c0-23.709-19.216-42.925-42.925-42.925h-519.87c-23.709 0-42.925 19.216-42.925 42.925v282.592h-124.612c-47.404 0-85.851-38.447-85.851-85.851v-852.298c0-47.404 38.447-85.851 85.851-85.851h854.931c47.404 0 85.851 38.447 85.851 85.851v852.298c0 47.404-38.447 85.851-85.851 85.851zM808.128 127.398c0-23.709-19.216-42.925-42.925-42.925h-572.339c-23.695 0-42.925 19.216-42.925 42.925v267.082c0 23.709 19.231 42.925 42.925 42.925h572.339c23.709 0 42.925-19.216 42.925-42.925v-267.082zM932.14 148.875c0-7.913-6.41-14.308-14.308-14.308h-57.234c-7.898 0-14.308 6.396-14.308 14.308v90.616c0 7.913 6.41 14.308 14.308 14.308h57.234c7.898 0 14.308-6.396 14.308-14.308v-90.616zM617.353 718.825h92.547c7.913 0 14.308 6.41 14.308 14.308v150.382c0 7.913-6.396 14.308-14.308 14.308h-92.547c-7.913 0-14.308-6.396-14.308-14.308v-150.382c0-7.898 6.396-14.308 14.308-14.308z" horiz-adv-x="1027" />
<glyph unicode="&#xe629;" d="M834.276 947.903c-8.9 15.391-25.347 24.897-43.147 24.897h-154.745v-118.315c0-46.653-37.838-84.491-84.491-84.491h-262.865c-46.667 0-84.491 37.838-84.491 84.491v118.315h-154.745c-17.813 0-34.247-9.505-43.161-24.897-8.843-15.434-8.843-34.402 0-49.85l370.703-469.304c8.9-15.405 25.319-24.911 43.133-24.911 17.799 0 34.247 9.505 43.133 24.911l370.675 469.304c4.436 7.745 6.661 16.321 6.661 24.911-0.014 8.618-2.225 17.194-6.661 24.939zM767.402 190.739h-693.866c-38.302 0-69.353 23.235-69.353 51.99 0 28.741 31.064 52.004 69.353 52.004h693.852c38.246 0 69.353-23.263 69.353-52.004 0-28.755-31.107-51.99-69.339-51.99zM767.402-51.2h-693.866c-38.302 0-69.353 23.249-69.353 52.004 0 28.727 31.064 51.99 69.353 51.99h693.852c38.246 0 69.353-23.263 69.353-51.99 0-28.741-31.107-52.004-69.339-52.004z" horiz-adv-x="841" />
<glyph unicode="&#xe630;" d="M849.586 590.46c124.272 0 233.236-64.745 295.679-162.158v353.635c0 52.739-42.715 95.431-95.431 95.431h-477.201v42.943c0 29.137-23.396 52.488-52.488 52.488h-252.942c-29.115 0-52.488-23.351-52.488-52.488v-711.029c0-26.221-21.46-47.727-47.727-47.727s-47.727 21.483-47.727 47.727v608.422c0 32.919-26.745 59.664-59.664 59.664-32.851 0.023-59.596-26.723-59.596-59.664v-679.978c0-52.739 42.67-95.454 95.431-95.454h463.35c-38.136 56.179-60.439 123.953-60.439 196.968 0 193.983 157.237 351.22 351.243 351.22zM856.215 512.639c-155.688 0-281.92-126.209-281.92-281.92s126.232-281.92 281.92-281.92c155.711 0 281.92 126.209 281.92 281.92s-126.209 281.92-281.92 281.92zM1002.608 181.694h-111.378v-110.194h-74.609v110.194h-110.74v75.771h110.74v110.763h74.609v-110.763h111.378v-75.771z" horiz-adv-x="1145" />
<glyph unicode="&#xe631;" d="M849.563 590.46c124.318 0 233.258-64.745 295.679-162.158v353.635c0 52.739-42.692 95.431-95.408 95.431h-477.201v42.943c0 29.137-23.396 52.488-52.511 52.488h-252.919c-29.092 0-52.511-23.351-52.511-52.488v-711.029c0-26.221-21.437-47.727-47.704-47.727s-47.727 21.483-47.727 47.727v608.422c0 32.919-26.723 59.664-59.664 59.664-32.874 0.023-59.596-26.723-59.596-59.664v-679.978c0-52.739 42.692-95.454 95.408-95.454h463.373c-38.136 56.179-60.416 123.953-60.416 196.968 0 193.983 157.237 351.22 351.198 351.22zM856.238 512.639c-155.733 0-281.942-126.209-281.942-281.92s126.209-281.92 281.942-281.92c155.688 0 281.897 126.209 281.897 281.92s-126.209 281.92-281.897 281.92zM1002.585 181.694h-296.75v75.771h296.727v-75.771z" horiz-adv-x="1145" />
<glyph unicode="&#xe632;" d="M515.749 502.779c-152.988 0-277.012-124.002-277.012-276.99s124.024-276.99 277.012-276.99 276.967 124.002 276.967 276.99-123.979 276.99-276.967 276.99zM659.56 177.644h-109.408v-108.267h-73.304v108.267h-108.826v74.446h108.826v108.826h73.304v-108.826h109.408v-74.446zM509.101 576.8c122.077 0 228.889-64.306 289.211-160.665v444.75c0 61.822-50.093 111.915-111.915 111.915h-470.043v-186.518c0-37.089-30.060-67.149-67.149-67.149h-149.205v-567.051c0-61.822 50.093-111.915 111.915-111.915h117.466c-38.723 55.376-61.62 122.614-61.62 195.292 0 188.487 152.809 341.341 341.341 341.341z" horiz-adv-x="798" />
<glyph unicode="&#xe633;" d="M519.487 502.779c-153.010 0-277.012-124.002-277.012-276.99s124.002-276.99 277.012-276.99c152.965 0 276.967 124.002 276.967 276.99s-124.002 276.99-276.967 276.99zM663.276 177.644h-291.561v74.446h291.539v-74.446zM509.101 576.8c122.077 0 228.889-64.306 289.211-160.665v444.75c0 61.822-50.093 111.915-111.915 111.915h-470.043v-186.518c0-37.089-30.060-67.149-67.149-67.149h-149.205v-567.051c0-61.822 50.093-111.915 111.915-111.915h117.466c-38.723 55.376-61.62 122.614-61.62 195.292 0 188.487 152.809 341.341 341.341 341.341z" horiz-adv-x="798" />
<glyph unicode="&#xe634;" d="M1003.413 972.8h-279.495v-110.921c0-22.067-17.857-39.924-39.924-39.924h-88.752v-350.492c0-36.761 29.797-66.557 66.557-66.557h120.538v-273.96h-97.553l-131.941 131.176h-133.651l131.941-131.176h-253.5v273.934h110.563c36.735 0 66.532 29.797 66.532 66.557v434.83c0 36.735-29.797 66.532-66.532 66.532h-279.521v-110.921c0-22.067-17.883-39.924-39.924-39.924h-88.752v-350.492c0-36.761 29.797-66.557 66.532-66.557h137.554v-367.482h304.215l-89.109-88.599h133.651l89.109 88.599h233.908v367.456h127.554c36.761 0 66.557 29.797 66.557 66.557v434.83c0 36.735-29.797 66.532-66.557 66.532z" horiz-adv-x="1070" />
<glyph unicode="&#xe635;" d="M950.878 460.813c-44.564 0-65.712-31.432-73.149-64.578-26.712-119.348-140.153-301.138-365.69-301.138-202.015 0-365.716 163.78-365.716 365.716 0 201.91 163.701 365.69 365.716 365.69 81.903 0 157.056-27.53 217.969-73.122h-71.698c-40.345 0-73.122-32.777-73.122-73.122 0-40.371 32.777-73.149 73.122-73.149h219.419c40.345 0 73.149 32.777 73.149 73.149v219.419c0 40.345-32.83 73.122-73.175 73.122s-73.122-32.777-73.122-73.122v-18.933c-82.932 57.986-183.715 92.055-292.568 92.055-282.811 0-512.013-229.202-512.013-511.987 0-282.811 229.202-512.013 512.013-512.013 364.925 0 511.987 347.442 511.987 434.303 0 53.108-38.868 77.71-73.122 77.71z" />
<glyph unicode="&#xe636;" d="M192.011 268.789v384l-192.011-191.989 192.011-192.011zM832.011 652.789v-384l191.989 192.011-191.989 191.989zM320.011 780.789h384l-192.011 192.011-191.989-192.011zM512-51.2l192.011 192.011h-384l191.989-192.011zM512 652.811c-106.038-0.022-192.011-85.951-192.011-192.011s85.929-191.967 191.989-192.011c106.017 0.065 191.967 85.994 191.967 192.011h0.065c-0.065 106.060-86.016 191.989-192.011 192.011zM512 332.865c-70.656 0.131-127.869 57.257-128 127.935 0.131 70.656 57.344 127.869 128 128 70.678-0.131 127.826-57.279 127.956-127.956h0.044c-0.196-70.721-57.322-127.847-128-127.978z" />
<glyph unicode="&#xe637;" d="M460.233 643.53h510.926v87.743h-511.971v74.315h511.986v68.116c0 54.716-44.366 99.096-99.096 99.096h-772.982c-54.716 0-99.096-44.38-99.096-99.096v-825.808c0-54.716 44.38-99.096 99.096-99.096h310.315c-1.532 3.908-2.963 8.017-4.166 12.484-2.706 9.964-5.125 19.212-7.273 27.73l-70.822 286.55c-4.266 16.65-6.385 29.334-6.385 38.038 0 11.038 3.88 20.315 11.625 27.859 7.731 7.545 17.308 11.324 28.747 11.324 15.662 0 26.213-5.039 31.639-15.103 5.411-10.050 10.164-24.667 14.216-43.836l55.761-248.513 62.404 232.55c4.638 17.795 8.804 31.352 12.498 40.643 3.665 9.277 9.678 17.322 17.995 24.108 8.318 6.772 19.642 10.15 33.958 10.15 14.531 0 25.812-3.522 33.829-10.594 8.031-7.058 13.586-14.746 16.693-23.063 3.107-8.332 7.258-22.061 12.484-41.23l62.991-232.55 55.747 248.513c2.706 12.956 5.283 23.135 7.688 30.493 2.434 7.358 6.6 13.93 12.498 19.742 5.898 5.798 14.459 8.69 25.697 8.69 11.209 0 20.744-3.722 28.589-11.167s11.753-16.793 11.753-28.017c0-7.931-2.119-20.615-6.385-38.038l-70.85-286.565c-4.481-17.895-8.217-31.166-11.267-40.214h103.004c54.73 0 99.096 44.38 99.096 99.096v521.32h-510.941v74.329zM589.593 242.165l-69.676-255.184c-4.753-17.050-8.633-29.62-11.668-38.181h161.8c-2.963 8.504-6.8 21.030-11.639 38.181l-68.817 255.184zM971.174 805.603h57.823v-74.329h-57.823v74.329zM971.174 643.53h58.868v-74.329h-58.868v74.329z" horiz-adv-x="842" />
<glyph unicode="&#xe639;" d="M1155.843 867.711c-0.185 0-0.343 0.053-0.528 0.053h-52.003c0-14.5 0-28.286 0-43.287-22.423 0-43.499 0-64.469 0 0-22.977 0-44.766 0-67.427 21.947 0 42.759 0 63.941 0 0-15.081 0-29.237 0-44.634-21.947 0-43.076 0-64.284 0 0-22.74 0-44.265 0-67.083 21.895 0 42.997 0 64.231 0 0-15.503 0-29.686 0-44.634-21.789 0-42.601 0-64.258 0 0-22.66 0-44.529 0-67.532 21.789 0 42.918 0 64.627 0 0.238-3.354 0.528-5.546 0.528-7.738 0-39.96 0.449-79.972-0.238-119.932-1.083-60.507-50.814-107.334-112.325-106.673-59.134 0.634-107.413 49.811-107.466 109.446-0.053 37.318-0.053 74.637-0.053 111.929 0 4.041 0 8.082 0 13.311 22.581 0 43.683 0 65.023 0 0 23.083 0 44.898 0 68.034-22.027 0-43.155 0-64.125 0 0 15.213 0 29.105 0 44.423 21.947 0 43.050 0 64.31 0 0 22.925 0 44.476 0 67.136-21.895 0-43.050 0-64.258 0 0 15.398 0 29.58 0 45.030 22.053 0 43.129 0 64.231 0 0 22.819 0 44.344 0 67.189-21.895 0-43.023 0-65.525 0 0 14.922 0 28.656 0 42.442h-253.068v47.249c0 32.036-25.698 57.787-57.76 57.787h-278.291c-32.036 0-57.787-25.751-57.787-57.787v-782.473c0-28.841-23.638-52.505-52.505-52.505s-52.505 23.664-52.505 52.505v669.567c0 36.262-29.395 65.657-65.631 65.657s-65.657-29.395-65.657-65.657v-748.298c0-57.998 46.985-105.036 105.009-105.036h1050.332c57.998 0 105.036 47.011 105.036 105.036v708.945c-0.026 57.813-46.8 104.692-104.534 104.957zM928.102 412.944c0.053-4.939 0.634-9.851 1.426-14.737 4.965-30.372 30.003-53.139 59.926-54.644 31.112-1.637 61.088 17.642 66.318 47.672 4.595 26.543 3.222 54.116 4.516 81.926-45.268 0-87.71 0-132.239 0-0.026-20.891-0.106-40.567 0.053-60.217z" horiz-adv-x="1260" />
<glyph unicode="&#xe640;" d="M0 390.808c0 4.657 0 9.345 0 13.986 6.977 13.098 18.238 21.275 31.025 28.19 21.664 11.712 42.955 24.078 64.417 36.133 253.29 142.243 506.518 284.564 759.901 426.651 46.63 26.165 93.759 51.381 140.654 77.032 4.003 0 8.005 0 12.008 0 5.342-6.012 10.669-12.008 15.995-17.989 0-6.012 0-12.008 0-18.004-2.025-11.432-4.267-22.832-5.981-34.311-13.659-90.489-27.162-180.993-40.79-271.481-12.382-82.265-24.888-164.515-37.254-246.795-13.425-89.18-26.586-178.376-40.245-267.525-4.953-32.333-33.112-47.705-63.264-35.417-3.676 1.511-7.336 3.146-11.105 4.47-86.579 30.371-173.221 60.601-259.722 91.221-7.476 2.648-10.933 1.277-14.952-5.404-25.932-43.048-51.941-86.050-78.73-128.584-20.029-31.803-41.273-62.828-61.971-94.195-2.679 0-5.342 0-8.005 0-13.534 4.828-18.129 14.827-18.098 28.657 0.249 75.646 0.53 151.323-0.125 226.969-0.202 24.405 7.211 44.154 23.876 62.236 146.635 159.017 292.803 318.439 439.095 477.767 2.539 2.772 5.077 5.529 7.616 8.301-3.302-0.514-5.373-2.071-7.382-3.722-187.612-154.313-375.239-308.611-562.68-463.111-6.682-5.513-11.883-6.682-20.278-3.676-75.833 27.006-151.79 53.732-227.935 79.82-15.917 5.482-28.548 13.519-36.071 28.782zM310.994 261.772l336.801 299.811-297.865-309.546z" />
<glyph unicode="&#xe641;" d="M1054.261 544.772c-13.158 165.698-151.768 296.056-320.845 296.056-114.937 0-215.755-60.23-272.726-150.859-107.080 60.573-243.683-10.67-252.26-135.883-117.458-14.393-208.43-114.405-208.43-235.74 0-131.199 106.359-237.576 237.559-237.576h290.961v217.024h-98.331l209.288 209.648 209.322-209.648h-98.314v-217.024h231.726c131.199 0 237.593 106.359 237.593 237.576-0.034 106.068-69.562 195.89-165.543 226.425zM558.884 202.175h160.826v-27.876h-160.826v27.876zM558.884 156.081h160.826v-27.876h-160.826v27.876zM558.884 108.905h160.826v-27.876h-160.826v27.876z" horiz-adv-x="1220" />
<glyph unicode="&#xe642;" d="M0 53.809c0-57.998 46.985-105.036 105.009-105.036h1050.332c57.998 0 105.036 47.011 105.036 105.036v708.945c0 57.998-47.011 105.036-105.036 105.036h-525.205v47.223c0 32.036-25.698 57.787-57.76 57.787h-278.291c-32.036 0-57.787-25.751-57.787-57.787v-782.473c0-28.841-23.638-52.505-52.505-52.505s-52.505 23.664-52.505 52.505v669.567c0 36.262-29.395 65.657-65.631 65.657s-65.657-29.395-65.657-65.657v-748.298z" horiz-adv-x="1260" />
<glyph unicode="&#xe643;" d="M1209.84 643.024v202.922c0 69.95-56.854 126.855-128.606 126.855-0.051 0-0.102 0-0.152 0l-546.379-39.924h-252.11c-30.787 0-55.534-24.747-55.534-55.534v-751.965c0-27.716-22.716-50.458-50.458-50.458s-50.458 22.741-50.458 50.458v643.461c0 34.848-28.249 63.097-63.072 63.097s-63.072-28.249-63.072-63.097v-719.122c0-55.737 45.153-100.941 100.915-100.941h1009.38c55.737 0 100.941 45.178 100.941 100.941v579.78c-0.025 4.645-0.812 9.061-1.396 13.528zM1082.935 922.089c41.98 0 76.143-34.163 76.143-76.143v-128.631c-14.518 8.097-31.016 13.097-48.808 13.097l-504.703 101.524v45.432c0 3.35-0.431 6.599-0.964 9.797l478.332 34.924z" horiz-adv-x="1211" />
<glyph unicode="&#xe644;" d="M1134.76 486.758c0-122.050-98.946-221.012-221.012-221.012h-138.208v104.988c-2.743 119.497 112.678 122.224 164.34 127.758-74.828 91.779-195.308 132.864-288.118 132.864-183.289 0-297.949-107.715-297.949-288.673v-76.953h-132.785c-122.097 0.016-221.028 98.962-221.028 221.028 0 112.885 84.659 205.948 193.913 219.315 7.928 116.468 135.036 182.765 234.712 126.41 52.946 84.279 146.786 140.317 253.661 140.317 157.284 0 286.294-121.241 298.488-275.385 89.305-28.415 153.985-111.965 153.985-210.658zM692.926 370.733c0 84.723 16.665 133.514 87.91 156.554-55.261 23.278-344.362 79.347-344.362-184.605 0-88.639 0-162.247 0-162.247h-103.053l231.271-231.636 231.271 231.636h-103.037c0 0 0 116.246 0 190.297z" horiz-adv-x="1135" />
<glyph unicode="&#xe645;" d="M945.82 972.8h-867.639c-43.194 0-78.181-34.987-78.181-78.181v-867.639c0-43.18 34.987-78.181 78.181-78.181h867.639c43.18 0 78.181 35.001 78.181 78.181v867.639c0 43.194-35.001 78.181-78.181 78.181zM401.396 415.171c-0.426-0.582-0.909-1.193-1.363-1.69-20.816-21.072-41.689-41.958-62.675-62.931-2.016-1.931-4.317-3.706-6.844-5.907 1.917-2.059 3.166-3.379 4.473-4.757 21.824-21.057 43.606-42.171 65.174-63.442 0.554-0.483 0.923-0.909 1.235-1.519v-137.292c-68.866 68.156-137.221 135.772-205.66 203.403 0 2.144 0 4.331 0 6.546 1.477 1.306 2.996 2.414 4.444 3.805 65.87 65.799 131.64 131.711 197.382 197.581 1.477 1.377 2.598 3.067 3.834 4.757v-138.555zM841.64 332.56c-68.511-67.574-136.866-135.19-205.746-203.36v137.32c0.398 0.568 0.767 1.022 1.164 1.519 21.654 21.27 43.435 42.228 65.259 63.399 1.392 1.321 2.584 2.684 4.53 4.785-2.57 2.144-4.87 3.919-6.858 5.978-20.972 20.887-41.958 41.788-62.718 62.874-0.426 0.383-0.88 1.008-1.377 1.605v138.555c1.164-1.675 2.428-3.351 3.848-4.757 65.785-65.87 131.569-131.754 197.425-197.496 1.335-1.42 2.996-2.584 4.459-3.876 0.014-2.215 0.014-4.373 0.014-6.546z" horiz-adv-x="829" />
<glyph unicode="&#xe646;" d="M352.155 667.233v80.287h477.096v124.765c0 55.51-45.006 100.515-100.515 100.515h-628.221c-55.51 0-100.515-45.006-100.515-100.515v-822.969c0-55.51 45.006-100.515 100.515-100.515h628.221c55.51 0 100.515 45.006 100.515 100.515v124.74h-477.096v80.287h477.096v84.106h-477.096v80.287h477.096v84.106h-477.096v80.287h477.096v84.106h-477.096z" horiz-adv-x="829" />
<glyph unicode="&#xe647;" d="M945.844 972.8h-867.674c-43.17 0-78.17-34.986-78.17-78.17v-867.674c0-43.184 35-78.17 78.17-78.17h867.674c43.17 0 78.17 34.986 78.17 78.17v867.674c0 43.184-35 78.17-78.17 78.17zM264.173 650.689c45.35 0 82.078-36.728 82.078-82.050 0-45.308-36.728-82.078-82.078-82.078-45.294 0-82.036 36.77-82.036 82.078 0 45.322 36.742 82.050 82.036 82.050zM189.939 270.939l208.572 232.514 73.937-72.45 135.98 167.044 233.463-327.109h-651.952z" horiz-adv-x="829" />
<glyph unicode="&#xe648;" d="M945.825 972.8h-867.664c-43.179 0-78.161-34.996-78.161-78.161v-867.664c0-43.164 34.982-78.161 78.161-78.161h867.664c43.179 0 78.175 34.996 78.175 78.161v867.664c0 43.164-34.996 78.161-78.175 78.161zM424.901 676.893c78.146 0.043 156.264 0.613 234.368-0.2 34.383-0.385 62.48-26.472 67.854-60.256 3.564-22.623-2.666-42.608-17.534-59.886-1.611-1.882-4.847-3.35-7.327-3.35-85.944-0.185-171.973-0.157-258.031-0.157-1.368 0-2.751 0.157-4.747 0.257 28.924 42.281 17.819 94.91-20.499 123.592 2.651 0 4.234 0 5.916 0zM369.478 245.491c-53.628-0.855-89.493 54.013-66.828 102.066 1.668 3.507 3.607 4.932 7.612 4.875 19.301-0.228 38.574-0.1 57.876-0.1 19.43 0 38.902-0.071 58.332 0.071 3.008 0.029 4.562-0.855 5.973-3.55 23.222-46.799-10.634-102.537-62.965-103.364zM722.12 288.584c-11.846-28.111-40.085-44.276-66.215-44.105-77.519 0.485-155.038 0.185-232.543 0.185-1.383 0-2.751 0-4.433 0 5.545 5.388 11.105 10.007 15.681 15.467 32.944 39.087 27.028 94.768-12.73 126.87-37.719 30.42-70.677 65.174-95.096 107.384-17.805 30.734-28.61 63.535-30.335 99.443-0.898 18.175 1.14 34.839 10.991 50.235 15.652 24.462 45.787 37.306 73.97 31.575 29.636-6.016 52.33-29.009 57.191-58.175 3.45-20.584-1.212-39.23-13.457-56.022-5.802-7.897-11.661-15.723-18.175-24.547 78.945 0 156.735 0 234.753 0-2.167-5.617-4.904-10.791-6.115-16.279-3.863-17.648 1.112-34.112 7.926-50.078 12.801-30.035 31.96-55.994 52.060-81.368 7.398-9.294 15.495-18.346 21.041-28.653 12.331-22.894 15.966-47.056 5.488-71.931z" horiz-adv-x="829" />
<glyph unicode="&#xe649;" d="M945.82 972.8h-867.639c-43.194 0-78.181-34.987-78.181-78.181v-867.639c0-43.18 34.987-78.181 78.181-78.181h867.639c43.18 0 78.181 35.001 78.181 78.181v867.639c0 43.194-35.001 78.181-78.181 78.181zM266.688 600.867c-5.239-5.183-12.524-7.795-21.867-7.795-9.584 0-16.968 2.556-22.222 7.611s-7.866 12.225-7.866 21.469c0 9.556 2.57 16.798 7.696 21.71 5.126 4.913 12.595 7.355 22.392 7.355 9.428 0 16.769-2.542 21.952-7.526 5.197-5.026 7.795-12.197 7.795-21.54 0-9.002-2.627-16.102-7.881-21.285zM310.294 692.225c0 32.488 8.079 57.265 24.266 74.46 16.201 17.138 39.374 25.729 69.576 25.729 22.094 0 41.93-4.345 59.48-13.021l-15.378-40.34c-8.207 3.294-15.846 6.020-22.903 8.122-7.071 2.101-14.142 3.181-21.199 3.181-27.135 0-40.681-19.254-40.681-57.805 0-37.372 13.546-56.044 40.681-56.044 10.025 0 19.311 1.335 27.873 4.033 8.548 2.655 17.082 6.858 25.629 12.538v-44.614c-8.406-5.339-16.94-9.073-25.544-11.104-8.605-2.059-19.453-3.095-32.587-3.095-59.466 0-89.213 32.672-89.213 97.96zM437.561 296.125c-0.27-0.327-0.54-0.696-0.809-0.966-12.14-12.311-24.323-24.494-36.577-36.747-1.179-1.108-2.527-2.158-4.004-3.436 1.122-1.193 1.846-1.974 2.627-2.769 12.737-12.311 25.459-24.621 38.054-37.046 0.312-0.284 0.525-0.525 0.724-0.895v-80.154c-40.198 39.8-80.112 79.26-120.068 118.747 0 1.25 0 2.527 0 3.834 0.866 0.753 1.746 1.392 2.598 2.215 38.451 38.409 76.846 76.874 115.226 115.34 0.866 0.809 1.519 1.775 2.243 2.769v-80.893zM518.155 597.105c-9.783 1.874-18.984 4.643-27.532 8.264v43.094c9.698-4.572 20.617-8.377 32.743-11.459 12.14-3.081 22.818-4.615 32.062-4.615 18.913 0 28.37 5.481 28.37 16.4 0 4.118-1.235 7.44-3.763 9.982-2.527 2.613-6.83 5.467-12.992 8.761-6.162 3.209-14.37 7.029-24.607 11.374-14.696 6.134-25.502 11.814-32.417 17.053-6.872 5.254-11.885 11.274-15.037 18.047-3.124 6.773-4.686 15.108-4.686 25.033 0 16.968 6.603 30.102 19.723 39.388 13.205 9.3 31.849 13.958 56.001 13.958 23.031 0 45.423-5.026 67.176-15.065l-15.718-37.599c-9.57 4.104-18.501 7.455-26.851 10.096-8.321 2.598-16.798 3.919-25.459 3.919-15.392 0-23.088-4.132-23.088-12.481 0-4.657 2.471-8.732 7.44-12.14 4.941-3.422 15.804-8.491 32.544-15.207 14.938-6.020 25.871-11.658 32.828-16.911 6.972-5.239 12.098-11.303 15.392-18.090 3.294-6.83 4.956-15.037 4.956-24.479 0-19.609-6.801-34.532-20.418-44.784s-33.993-15.392-61.113-15.392c-13.901 0.014-25.757 0.951-35.555 2.854zM727.735 247.933c-39.985-39.459-79.899-78.933-120.111-118.719v80.154c0.227 0.327 0.44 0.611 0.682 0.895 12.651 12.424 25.345 24.65 38.096 37.017 0.824 0.781 1.505 1.576 2.655 2.797-1.491 1.25-2.84 2.272-4.004 3.465-12.24 12.197-24.508 24.408-36.605 36.719-0.256 0.227-0.511 0.582-0.809 0.937v80.864c0.682-0.966 1.42-1.945 2.243-2.769 38.409-38.437 76.803-76.903 115.254-115.283 0.781-0.838 1.746-1.491 2.613-2.272-0.014-1.292-0.014-2.527-0.014-3.805zM788.848 609.657c-13.631-10.266-34.007-15.392-61.113-15.392-13.901 0-25.771 0.937-35.569 2.84-9.783 1.874-18.97 4.643-27.518 8.264v43.094c9.698-4.572 20.617-8.377 32.743-11.459 12.14-3.081 22.818-4.615 32.047-4.615 18.927 0 28.37 5.481 28.37 16.4 0 4.118-1.235 7.44-3.749 9.982-2.542 2.613-6.83 5.467-12.992 8.761-6.177 3.209-14.37 7.029-24.621 11.374-14.682 6.134-25.487 11.814-32.402 17.053-6.887 5.254-11.885 11.274-15.037 18.047-3.138 6.773-4.7 15.108-4.7 25.033 0 16.968 6.603 30.102 19.737 39.388 13.205 9.3 31.849 13.958 56.001 13.958 23.017 0 45.423-5.026 67.162-15.065l-15.718-37.599c-9.57 4.104-18.501 7.455-26.851 10.096-8.307 2.598-16.798 3.919-25.459 3.919-15.392 0-23.088-4.132-23.088-12.481 0-4.657 2.471-8.732 7.455-12.14 4.927-3.422 15.789-8.491 32.544-15.207 14.923-6.020 25.857-11.658 32.828-16.911 6.958-5.239 12.098-11.303 15.392-18.090 3.294-6.83 4.941-15.037 4.941-24.479-0.014-19.595-6.801-34.518-20.404-44.77z" horiz-adv-x="829" />
<glyph unicode="&#xe650;" d="M1024.022 232.791c0-31.298 0-62.64 0-94.003-7.263-19.941-19.853-32.068-42.699-32.068-259.626 0.11-519.186-0.088-778.812-0.088-30.043 0-44.614 14.658-44.702 44.702-0.11 29.999 0.198 60.020 0.198 90.020 0.044 171.918 0.044 343.879 0.044 515.863 0 57.313-0.044 114.626 0 171.94 0.044 22.846 8.012 34.049 29.515 42.016 0.902 0.33 1.585 1.078 2.443 1.629 31.298 0 62.662 0 94.003 0 24.365-9.376 31.98-27.688 30.924-52.779-1.365-30.946-0.352-62.001-0.308-92.991 0-3.896 0.396-7.747 0.616-12.259 4.138 0 7.109 0 10.058 0 162.695 0.088 325.325 0.154 487.998 0.572 5.216 0 11.621 2.927 15.429 6.691 37.064 36.426 73.71 73.358 110.511 110.092 3.257 3.257 6.691 6.537 10.433 9.244 13.514 9.464 31.98 6.471 41.884-6.559 10.477-13.734 8.408-30.087-6.053-44.658-37.394-37.549-75.097-74.855-112.227-112.646-3.896-3.94-6.779-10.851-6.779-16.375-0.44-161.969-0.484-324.004-0.528-485.974 0-3.5 0.286-7.065 0.462-11.731 4.864 0 8.804 0 12.7 0 34.049 0 68.032-0.088 102.037 0.044 18.972 0.066 32.552-7.968 40.080-25.663 0.77-1.739 1.805-3.323 2.773-5.018zM662.425 658.238c-3.94 0-7.197 0-10.433 0-108.266 0-216.553-0.154-324.819 0.242-10.058 0-12.832-2.487-12.832-12.744 0.396-108.266 0.242-216.531 0.242-324.819 0-3.389 0-6.867 0-10.609 116.299 116.299 231.586 231.63 347.841 347.929zM361.465 263.428c4.138 0 7.351 0 10.609 0 108.222 0 216.509 0.154 324.775-0.242 10.036 0 12.832 2.553 12.788 12.744-0.396 108.266-0.242 216.487-0.242 324.753 0 3.456 0 6.933 0 10.675-116.299-116.343-231.586-231.63-347.929-347.929zM0 782.79c4.93 7.769 8.738 16.595 15.121 22.846 4.798 4.666 12.788 8.276 19.523 8.518 27.204 0.968 54.452 0.396 82.426 0.396 0-51.811 0-103.181 0-155.674-3.411-0.198-6.955-0.572-10.433-0.572-17.652-0.088-35.392 0.968-52.889-0.286-25.377-1.827-44.239 5.921-53.748 30.814 0 31.32 0 62.662 0 93.959zM740.031-51.2c-2.905 1.497-5.789 2.949-8.672 4.38-11.313 5.877-20.293 14.813-20.821 27.446-1.145 28.172-0.33 56.433-0.33 85.354 51.547 0 102.939 0 155.762 0 0-9.244 0-18.422 0-27.6 0-12.986-0.814-26.081 0.154-38.957 1.871-25.201-7.659-42.523-32.112-50.644-31.342 0.022-62.684 0.022-93.981 0.022z" />
<glyph unicode="&#xe651;" d="M920.565 972.8h-817.13c-57.127 0-103.435-46.308-103.435-103.435v-55.162h55.177v-44.827h-55.177v-31.019h55.177v-44.827h-55.177v-31.019h55.177v-44.827h-55.177v-27.574h55.177v-44.827h-55.177v-34.464h55.177v-44.827h-55.177v-31.033h55.177v-44.827h-55.177v-31.033h55.177v-44.827h-55.177v-262.018c0-57.141 46.308-103.435 103.435-103.435h817.13c57.141 0 103.435 46.294 103.435 103.435v817.116c0 57.127-46.294 103.435-103.435 103.435zM144.803 738.356h503.38v-44.827h-503.38v44.827zM144.803 662.509h668.868v-44.827h-668.868v44.827zM144.803 590.108h599.94v-44.827h-599.94v44.827zM144.803 510.802h530.955v-44.827h-530.955v44.827zM144.803 434.955h241.334v-44.827h-241.334v44.827zM892.977 314.253h-748.174v44.827h748.174v-44.827zM892.977 769.375h-748.174v44.827h748.174v-44.827z" />
<glyph unicode="&#xe652;" d="M457.97 43.644l-64.764-92.834c-0.556-0.798-0.998-1.255-1.554-2.024h131.054c-0.556 0.77-0.998 1.226-1.568 2.024l-63.168 92.834zM928.314 972.8h-827.796c-55.527 0-100.518-45.006-100.518-100.518v-822.978c0-55.512 44.992-100.518 100.518-100.518h204.358c0 0-0.029 0.071-0.029 0.1 0 9.167 5.959 22.239 17.863 39.232l78.792 112.935-69.854 94.117c-12.132 15.539-18.176 29.039-18.176 40.515 0 8.938 3.607 16.694 10.849 23.308 7.242 6.6 16.679 9.879 28.383 9.879 10.207 0 18.689-2.865 25.347-8.611 6.729-5.745 14.541-14.769 23.465-27.1l56.468-77.21 54.885 77.21c9.152 12.759 17.050 21.911 23.779 27.428 6.672 5.517 15.040 8.297 25.033 8.297 11.49 0 21.013-3.25 28.569-9.751 7.527-6.486 11.305-14.284 11.305-23.451 0-6.6-1.54-12.916-4.633-18.96-3.065-6.087-7.812-13.258-14.185-21.555l-69.854-94.117 78.792-112.935c12.132-17.321 18.205-30.408 18.433-39.332h41.927c-1.354 5.688-2.21 11.875-2.21 18.918v377.738c0 17.435 3.878 30.622 11.661 39.546 7.755 8.924 18.219 13.401 31.406 13.401s23.836-4.434 31.905-13.244c8.055-8.839 12.117-22.082 12.117-39.717v-377.724c0-7.071-0.841-13.258-2.153-18.918h193.581c55.527 0 100.518 45.006 100.518 100.518v822.978c-0.029 55.512-45.020 100.518-100.547 100.518zM385.707 581.319h-153.921v97.382h153.921v-97.382zM385.707 738.376h-153.921v97.368h153.921v-97.368zM599.303 581.319h-153.921v97.382h153.921v-97.382zM599.303 738.376h-153.921v97.368h153.921v-97.368zM803.476 584.456h-153.921v97.382h153.921v-97.382zM803.476 741.513h-153.921v97.368h153.921v-97.368z" horiz-adv-x="1029" />
<glyph unicode="&#xe653;" d="M532.584 86.75c14.445 0 27.849 4.202 40.186 12.607s22.237 20.997 29.673 37.807c7.422 16.809 11.154 37.094 11.154 60.927 0 22.949-3.504 42.679-10.513 59.146-7.023 16.496-16.781 29.16-29.188 37.992-12.465 8.804-26.24 13.234-41.311 13.234-24.046 0-44.288-9.473-60.77-28.391-16.496-18.918-24.73-46.795-24.73-83.591 0-34.673 8.191-61.61 24.573-80.884 16.353-19.217 36.667-28.846 60.927-28.846zM928.158 972.8h-827.644c-55.513 0-100.514-45-100.514-100.514v-822.958c0-55.499 45-100.528 100.528-100.528h260.103v375.303c0 16.581 3.604 28.975 10.841 37.137 7.251 8.205 17.137 12.294 29.687 12.294 12.322 0 22.365-4.202 30.129-12.593 7.778-8.419 11.653-20.485 11.653-36.211v-10.541c16.353 20.2 33.391 35.057 51.026 44.488 17.65 9.487 37.65 14.217 59.986 14.217 26.795 0 51.454-6.923 74.004-20.727 22.564-13.832 40.371-34.046 53.419-60.627 13.106-26.567 19.644-58.049 19.644-94.431 0-26.795-3.789-51.397-11.353-73.861-7.521-22.436-17.906-41.254-31.083-56.439-13.191-15.214-28.775-26.938-46.753-35.1-17.963-8.191-37.237-12.279-57.878-12.279-24.886 0-45.77 5-62.693 14.986-16.895 9.986-33.006 24.658-48.32 44.032v-129.66h485.233c55.499 0 100.528 45.015 100.528 100.528v822.972c-0.014 55.513-45.029 100.514-100.542 100.514zM382.469 588.608h-145.643v76.34h145.643v-76.34zM382.469 743.581h-145.643v76.34h145.643v-76.34zM596.103 494.404c-90.2 0-163.335 73.106-163.335 163.307 0 87.679 69.103 158.976 155.785 162.936v-151.412h170.287c0.271-3.832 0.584-7.635 0.584-11.539 0-90.2-73.106-163.292-163.321-163.292zM620.477 701.145v151.412c2.536 0.114 5.014 0.385 7.564 0.385 86.311 0 156.782-66.967 162.708-151.797h-170.273z" horiz-adv-x="1029" />
<glyph unicode="&#xe654;" d="M905.957 919.949c22.113-132.571 13.106-293.723-32.802-459.937-63.663-230.519-183.204-416.399-313.328-511.212 299.916 4.894 541.583 249.405 541.583 550.484 0 168.722-75.942 319.644-195.453 420.666zM0 499.284c0-123.9 40.938-238.211 109.968-330.226-30.050 138.596-23.81 313.557 26.165 494.528 32.175 116.452 78.588 221.512 133.412 309.214-161.366-96.022-269.545-272.099-269.545-473.516zM569.14 732.769c52.361 0 102.062 42.544 110.809 95.547 8.732 52.453-27.328 95.547-79.781 95.547-52.897 0-102.597-43.079-111.329-95.547-8.747-53.004 27.297-95.547 80.301-95.547zM607.54 232.063c1.285 10.72 0.428 19.177-13.427 19.177-20.477 0-77.609-88.773-103.912-88.773-25.875 0-3.043 47.743-3.043 47.743s61.935 158.354 91.816 250.705c24.544 75.361-24.927 97.214-43.247 102.536-7.096 0.963-14.283 1.392-21.838 1.392-73.603 0-157.069-52.193-213.697-139.636-1.315-9.864 0.443-18.305 13.396-18.305 20.492 0 78.053 88.788 103.928 88.788 25.875 0 3.15-47.743 3.15-47.743s-57.576-159.241-91.893-250.185c-33.888-90.088 4.848-112.384 24.56-118.196 83.359-17.877 189.015 41.458 252.892 149.392 0.015 1.361 0.428 2.263 1.315 3.104z" />
<glyph unicode="&#xe655;" d="M755.925 259.172c-4.153 74.055-41.188 124.345-108.914 152.704-37.404 15.659-76.9 21.305-117.106 22.386-51.129 1.38-101.49-3.413-149.049-24.064-58.695-25.515-95.26-68.708-103.168-133.333-3.655-30.023-5.447-60.245-8.021-90.368-0.896-10.795-1.579-21.632-2.404-32.654h496.142c0.071 6.016 0.341 11.52-0.057 16.967-2.46 29.468-5.788 58.866-7.424 88.363zM603.079 510.45c32.1 32.896 44.331 73.742 46.066 122.368-0.896 6.628-1.579 17.081-3.698 27.25-11.705 57.813-61.938 101.803-123.563 108.558-64.299 7.054-132.011-33.778-149.262-95.602-15.9-57.003-4.907-110.052 32.91-155.648 50.901-61.383 141.824-64.028 197.547-6.926zM287.019 456.804c31.132 31.047 42.581 69.945 44.473 112.199-0.811 37.348-10.965 70.756-38.514 96.526-38.684 36.238-84.779 44.501-134.77 31.004-48.228-12.985-78.279-45.056-89.244-93.781-9.728-42.994-1.778-83.684 20.693-121.301 42.439-71.068 138.809-83.001 197.362-24.647zM114.332 368.853c-54.969-19.712-92.146-56.548-104.476-114.645-4.85-22.955-5.433-46.876-7.708-70.357-0.967-9.785-1.394-19.669-2.076-29.995-0.014-0.455-0.043-0.91-0.071-1.394 25.842 0 50.389 0 75.691 0 0 0.014 0 0.028 0 0.043h97.977l0.398 1.351 46.18 155.691c0.071 0.199 0.185 0.299 0.27 0.512 8.448 24.092 17.508 47.972 26.553 72.562-43.932 4.053-89.060 1.906-132.736-13.767zM929.323 481.138c22.485 37.632 30.421 78.308 20.693 121.301-10.965 48.711-41.031 80.796-89.244 93.781-49.977 13.483-96.085 5.234-134.77-30.99-27.548-25.785-37.703-59.193-38.514-96.54 1.906-42.24 13.34-81.166 44.473-112.185 58.553-58.34 154.923-46.421 197.362 24.633zM1018.965 152.178c-0.043 0.583-0.071 1.109-0.1 1.678-0.668 10.226-1.095 20.011-2.062 29.71-2.29 23.495-2.859 47.388-7.723 70.386-12.302 58.084-49.479 94.891-104.476 114.617-43.662 15.687-88.804 17.82-132.736 13.767 9.045-24.576 18.105-48.427 26.553-72.576 0.085-0.213 0.199-0.299 0.27-0.498l46.578-157.042h97.977c0 0 0-0.028 0-0.043 25.344 0 49.877 0 75.719 0z" horiz-adv-x="1019" />
<glyph unicode="&#xe656;" d="M601.492 422.052c-10.724 5.977-22.062 11.51-34.101 16.557-55.848 23.363-114.885 31.842-174.951 33.429-76.409 2.073-151.617-5.076-222.736-35.945-87.662-38.147-142.323-102.675-154.133-199.258-5.433-44.853-8.121-90.006-11.967-134.988-1.315-16.114-2.388-32.299-3.603-48.771h144.253v-0.529h246.342c-11.181 30.083-17.587 62.511-17.587 96.498 0 136.532 98.628 249.773 228.483 273.008zM501.777 585.88c47.956 49.157 66.272 110.167 68.831 182.83-1.315 9.909-2.373 25.522-5.49 40.707-17.515 86.375-92.58 152.103-184.617 162.197-96.083 10.523-197.228-50.472-223.007-142.838-23.735-85.188-7.349-164.442 49.171-232.573 76.009-91.694 211.855-95.654 295.112-10.323zM649.247 376.87c-118.188 0-214.028-95.826-214.028-214.028 0-118.245 95.84-214.057 214.028-214.057 118.259 0 214.057 95.811 214.057 214.057 0 118.202-95.797 214.028-214.057 214.028zM760.401 125.624h-84.573v-83.672h-56.649v83.672h-84.030v57.521h84.030v84.116h56.649v-84.116h84.573v-57.521z" horiz-adv-x="863" />
<glyph unicode="&#xe657;" d="M599.491 423.884c-10.688 5.957-21.989 11.472-33.988 16.502-55.663 23.285-114.503 31.736-174.369 33.318-76.155 2.066-151.113-5.059-221.995-35.826-87.37-38.020-141.85-102.333-153.621-198.595-5.415-44.704-8.094-89.707-11.928-134.539-1.311-16.060-2.38-32.192-3.591-48.609h143.774v-0.527h245.522c-11.144 29.983-17.528 62.303-17.528 96.177 0 136.078 98.3 248.942 227.723 272.1zM500.108 587.167c47.796 48.993 66.051 109.8 68.602 182.221-1.311 9.876-2.366 25.437-5.472 40.571-17.457 86.087-92.272 151.597-184.003 161.658-95.764 10.488-196.572-50.304-222.265-142.363-23.656-84.905-7.325-163.895 49.008-231.799 75.756-91.389 211.15-95.336 294.131-10.289zM653.942 372.568c-116.968 0-211.877-94.88-211.877-211.891s94.908-211.877 211.877-211.877c41.398 0 79.888 12.042 112.522 32.548l-110.043 110c-7.98-2.807-16.402-4.745-25.466-4.745-41.954 0-76.126 34.159-76.126 76.326 0 5.629 0.641 11.244 1.938 16.431l38.719-38.733c12.982-12.968 33.916-12.968 46.67 0l11.030 11.030c12.996 12.726 12.996 33.717 0 46.685l-38.719 38.719c5.201 1.055 10.845 1.952 16.474 1.952 42.11 0 76.055-34.159 76.055-76.098 0-9.32-1.724-17.728-4.703-25.95l113.263-113.149c31.28 36.937 50.276 84.662 50.276 136.862 0.014 117.011-94.837 211.891-211.891 211.891z" horiz-adv-x="866" />
<glyph unicode="&#xe658;" d="M808.769 138.131c-1.213 1.183-3.757 2.426-5.014 1.938-11.922-4.733-23.681-9.807-36.535-15.22 10.221-20.708 24.48-36.831 42.511-49.803 4.112-2.973 7.44-2.603 9.925 1.938 5.207 9.555 10.561 19.081 15.294 28.873 0.887 1.834 0.163 5.665-1.287 7.203-8.047 8.609-16.448 16.877-24.894 25.072zM146.096 124.745v78.853h435.077c2.381 22.72 7.913 44.493 15.723 65.112h-450.8v78.853h497.822c25.293 29.198 56.829 52.761 92.624 68.573h-590.447v78.839h637.617v-63.263c18.785 4.275 38.221 6.745 58.278 6.745 52.761 0 101.839-15.783 143.019-42.718v501.875c0.015 41.535-33.665 75.185-75.185 75.185h-834.625c-41.549 0-75.2-33.651-75.2-75.185v-834.639c0-41.535 33.651-75.185 75.2-75.185h584.752c-37.615 36.357-64.461 83.735-75.096 136.969h-438.76zM146.096 649.236h702.773v-78.853h-702.773v78.853zM849.12 381.333c-119.412 0-216.252-96.84-216.252-216.266 0-119.441 96.84-216.266 216.252-216.266 119.456 0 216.266 96.825 216.266 216.266 0 119.426-96.81 216.266-216.266 216.266zM867.151 112.823c-8.313-25.323-21.093-48.353-37.319-69.431-1.361-1.745-3.328-3.047-5-4.556-1.154 0-2.293 0-3.461 0-17.587 6.641-33.177 16.256-46.534 29.76-20.338 20.605-34.967 44.434-43.295 72.168 0 2.87 0 5.754 0 8.638 2.47 0.577 4.97 1.745 7.425 1.671 25.574-0.754 47.762 8.18 67.789 23.445 0.651 0.488 1.509 0.74 3.387 1.642 8.816-8.89 17.824-18.016 26.861-27.113 9.126-9.156 18.489-18.12 27.335-27.527 1.938-2.056 3.609-6.301 2.81-8.697zM952.646 234.054c-3.92-4.881-7.44-10.147-11.833-14.54-19.037-19.111-38.31-37.985-57.361-56.814 12.262-16.981 11.863-19.554-4.186-33.739-19.244 19.48-38.502 38.976-57.776 58.5 13.445 15.398 17.868 16.093 32.808 3.55 16.507 16.626 32.97 33.444 49.714 49.98 6.701 6.627 13.978 12.647 20.989 18.977 4.615 0 9.23 0 13.83 0 4.63-4.63 9.215-9.215 13.83-13.845-0.015-4.023-0.015-8.061-0.015-12.070z" horiz-adv-x="1065" />
<glyph unicode="&#xe659;" d="M950.85 460.793c-44.561 0-65.711-31.419-73.136-64.588-26.722-119.389-140.189-301.134-365.722-301.134-201.976 0-365.707 163.789-365.707 365.707 0 201.947 163.745 365.707 365.707 365.707 81.931 0 157.080-27.539 217.963-73.136h-71.677c-40.36 0-73.15-32.775-73.15-73.15s32.79-73.15 73.15-73.15h219.436c40.346 0 73.136 32.775 73.136 73.15v219.45c0 40.375-32.805 73.15-73.136 73.15-40.375 0-73.165-32.775-73.165-73.15v-18.948c-82.908 58.010-183.7 92.098-292.557 92.098-282.74 0-511.993-229.238-511.993-512.007 0-282.799 229.252-512.007 511.993-512.007 364.934 0 512.007 347.416 512.007 434.277-0.015 53.167-38.858 77.73-73.15 77.73zM656.324 436.842c0-79.212-64.214-143.427-143.427-143.427-79.212 0-143.427 64.214-143.427 143.427 0 79.212 64.214 143.427 143.427 143.427 79.212 0 143.427-64.214 143.427-143.427z" horiz-adv-x="874" />
<glyph unicode="&#xe660;" d="M601.492 422.052c-10.724 5.977-22.062 11.51-34.101 16.557-55.848 23.363-114.885 31.842-174.951 33.429-76.409 2.073-151.617-5.076-222.736-35.945-87.662-38.147-142.323-102.675-154.133-199.258-5.433-44.853-8.121-90.006-11.967-134.988-1.315-16.114-2.388-32.299-3.603-48.771h144.253v-0.529h246.342c-11.181 30.083-17.587 62.511-17.587 96.498 0 136.532 98.628 249.773 228.483 273.008zM501.777 585.88c47.956 49.157 66.272 110.167 68.831 182.83-1.315 9.909-2.373 25.522-5.49 40.707-17.515 86.375-92.58 152.103-184.617 162.197-96.083 10.523-197.228-50.472-223.007-142.838-23.735-85.188-7.349-164.442 49.171-232.573 76.009-91.694 211.855-95.654 295.112-10.323zM646.86 376.87c-118.188 0-214.028-95.826-214.028-214.028 0-118.245 95.84-214.057 214.028-214.057 118.259 0 214.057 95.811 214.057 214.057 0 118.202-95.797 214.028-214.057 214.028zM758.013 125.624h-225.252v57.521h225.252v-57.521z" horiz-adv-x="861" />
<glyph unicode="&#xe661;" d="M567.172 437.073l-445.96 264.033-121.213-167.349 446.103-264.677zM101.896 386.855v-161.951l469.357-273.312v361.633l-105.318-142.334zM952.275 648.411l-121.213 67.215-52.695-54.399 98.961-54.327zM643.25 734.341v238.459h-111.719v-238.459h-111.633l167.621-167.936 167.65 167.936zM433.244 807.384c-8.635 24.457-21.35 45.249-39.192 63.062l-208.947-122.058 71.253-43.373 176.886 102.368zM645.599 398.511v-449.711l370.211 215.548v439.43l-370.211-205.267zM774.157 136.411l-14.262-8.291-0.243 72.785 14.505 8.434v-72.928zM798.414 150.544l-14.233-8.291v72.914l14.233 8.291v-72.914zM832.551 170.405l-14.248-8.305v72.928l14.248 8.291v-72.914zM856.393 184.28l-14.262-8.291v72.928l14.262 8.291v-72.928zM880.65 198.399l-14.52-8.448v72.928l14.52 8.434v-72.914zM915.732 218.847l-2.262-1.332-12-6.973v72.914l14.262 8.305v-72.914z" horiz-adv-x="1016" />
<glyph unicode="&#xe662;" d="M216.545 284.338l-69.23-136.021h37.784l11.637 25.495h41.684l0.932-25.495h35.438l-11.435 136.021h-46.811zM210.036 202.835l20.197 44.201c2.299 4.956 4.179 10.099 5.655 15.443-0.233-3.496-0.342-7.535-0.342-12.196l0.186-7.986 1.585-39.462h-27.282zM979.255 458.889v415.985c0 54.082-43.828 97.926-97.91 97.926h-783.404c-54.098 0-97.941-43.844-97.941-97.926v-783.42c0-54.066 43.844-97.926 97.941-97.926h507.743c45.817-28.183 99.557-44.729 157.305-44.729 166.239 0 301.017 134.778 301.017 301.017-0.016 81.302-32.393 154.913-84.751 209.072zM501.047 397.847h-391.252v113.415h504.356c-47.168-26.909-86.32-66.138-113.105-113.415zM576.833 866.563h296.309v-296.325h-296.309v296.325zM107.527 863.999h406.648v-113.415h-406.648v113.415zM107.527 682.535h406.648v-113.431h-406.648v113.431zM108.661 335.453h365.834c-4.676-15.754-8.017-32.051-10.036-48.769h-148.217v-26.101h146.275c-0.124-3.604-0.544-7.131-0.544-10.767 0-3.247 0.373-6.401 0.482-9.648h-146.212v-26.086h148.030c0.637-5.36 1.523-10.627 2.424-15.878h-150.469v-26.101h156.233c7.675-28.773 19.467-55.807 34.786-80.509h-398.585v243.858zM719.736 120.43c-34.195-10.658-68.36-21.362-102.54-32.036-0.637-0.202-1.336-0.171-3.061-0.357 5.919 18.55 11.404 36.402 17.323 54.098 5.593 16.733 11.714 33.31 17.401 50.027 1.227 3.604 2.812 4.521 6.479 3.278 34.118-11.683 56.506-34.568 66.666-69.261 0.761-2.532 1.119-4.692-2.268-5.748zM922.641 301.521c-26.629-27.189-53.694-53.958-80.603-80.867-26.396-26.427-52.824-52.824-79.266-79.235-1.46-1.445-3.030-2.797-5.049-4.645-14.682 46.423-44.496 77.573-89.784 93.793-0.435 0.653-0.901 1.29-1.352 1.942 1.662 0.994 3.62 1.725 4.956 3.061 51.891 51.798 103.721 103.627 155.503 155.534 2.408 2.408 4.972 4.521 7.628 6.432 1.6 0.062 3.138 0.264 4.754 0.295h-4.319c5.484 3.884 11.543 6.65 18.768 7.38 7.473 0.777 14.356-0.435 20.399-3.822v-3.558h-25.837c11.528-0.186 22.854-1.15 33.978-2.765 13.781-13.268 27.359-26.738 40.674-40.457 15.226-15.692 15.21-37.070-0.451-53.088z" horiz-adv-x="1064" />
<glyph unicode="&#xe663;" d="M857.22 146.612c-0.656 25.502-10.577 73.198-28.794 96.946-43.947 57.332-96.918 95.335-170.885 118.015l-76.647-236.286c0-43.705-35.423-79.156-79.156-79.156h-142.49c-18.431 0-35.181 6.571-48.637 17.12-12.116 5.93-21.211 17.12-23.991 30.633-3.592 8.31-5.545 17.433-6.087 26.941l-69.791 244.254c-79.969-22.408-135.79-61.309-181.947-121.521-18.232-23.748-28.139-71.445-28.794-96.946 0.214-6.6 0-14.297 0-21.966v-87.951c0-48.551 39.357-87.894 87.909-87.894h681.403c48.566 0 87.909 39.343 87.909 87.894v87.951c0 7.669-0.2 15.367 0 21.966zM242.287 510.25c93.354-112.655 260.234-117.53 362.497-12.729 38.787 39.742 61.538 85.913 73.611 138.185 6.286 27.169 9.864 55.878 10.948 86.398-1.597 12.174-2.922 31.332-6.757 49.991-21.525 106.098-113.724 186.822-226.749 199.238-118.015 12.958-242.273-62.008-273.961-175.447-16.778-60.169-17.134-117.915-1.297-172.054 11.703-39.984 32.23-78.030 61.709-113.581zM431.618 201.322c-19.344 0-35.038 15.694-35.038 35.024 0 19.344 15.694 35.024 35.038 35.024s35.010-15.709 35.010-35.024c0-19.344-15.666-35.024-35.010-35.024z" horiz-adv-x="857" />
<glyph unicode="&#xe664;" d="M604.79 497.522c58.916 60.39 81.374 135.323 84.552 224.585-1.617 12.167-2.934 31.333-6.77 49.984-21.499 106.123-113.724 186.839-226.746 199.249-118.004 12.954-242.262-61.993-273.953-175.431-29.157-104.62-8.989-201.983 60.419-285.648 93.341-112.679 260.212-117.517 362.499-12.739zM857.215 146.603c-0.658 25.507-10.578 73.201-28.785 96.934-46.162 60.247-102.001 99.338-182.001 121.539l-74.962-262.445c0-24.162-19.767-43.944-43.944-43.944-24.162 0-43.958 19.782-43.958 43.944v208.839c0 30.317-24.606 54.951-54.937 54.951s-54.951-24.634-54.951-54.951v-208.825c0-24.162-19.81-43.944-43.958-43.944-24.176 0-43.958 19.782-43.958 43.944l-74.99 262.445c-79.972-22.401-135.781-61.292-181.929-121.539-18.279-23.732-28.184-71.441-28.842-96.948 0.215-6.584 0-14.285 0-21.957v-87.944c0-48.567 39.349-87.901 87.916-87.901h681.398c48.581 0 87.916 39.335 87.916 87.901v87.944c-0.014 7.672-0.2 15.373-0.014 21.957z" horiz-adv-x="857" />
<glyph unicode="&#xe665;" d="M511.226 545.949c0 0-0.014 0-0.029 0 0 0-0.014 0-0.029 0-22.007 0-44-8.396-60.792-25.188l-425.203-425.217c-33.57-33.555-33.57-88.001 0-121.57 16.792-16.778 38.785-25.174 60.792-25.174 22.007 0 44 8.396 60.792 25.188l364.453 364.453 364.453-364.453c16.792-16.792 38.785-25.188 60.778-25.188 22.007 0 44.015 8.396 60.792 25.188 16.778 16.778 25.174 38.785 25.174 60.778s-8.396 44-25.174 60.778l-425.232 425.217c-16.778 16.792-38.771 25.188-60.778 25.188zM450.377 947.612l-425.203-425.217c-33.57-33.555-33.57-87.986 0-121.57 16.792-16.778 38.785-25.174 60.792-25.174 22.007 0 44 8.396 60.792 25.188l364.453 364.439 364.439-364.439c16.792-16.792 38.785-25.188 60.778-25.188 22.007 0 44.015 8.396 60.792 25.188 16.778 16.778 25.174 38.785 25.174 60.778 0 21.993-8.396 44-25.174 60.778l-425.217 425.217c-16.778 16.792-38.771 25.188-60.778 25.188 0 0-0.014 0-0.029 0 0 0-0.014 0-0.029 0-22.007 0-44-8.396-60.792-25.188z" horiz-adv-x="1022" />
<glyph unicode="&#xe666;" d="M511.169 375.651c0 0 0.014 0 0.029 0 0 0 0.014 0 0.029 0 22.007 0 44 8.396 60.792 25.188l425.203 425.217c33.57 33.555 33.57 88.001 0 121.57-16.792 16.778-38.785 25.174-60.778 25.174-22.007 0-44-8.396-60.792-25.188l-364.453-364.439-364.453 364.439c-16.792 16.792-38.785 25.188-60.778 25.188-22.007 0-44.015-8.396-60.792-25.188-16.778-16.778-25.174-38.785-25.174-60.778s8.396-44 25.174-60.778l425.217-425.217c16.763-16.792 38.785-25.188 60.778-25.188zM572.019-26.012l425.203 425.217c33.57 33.555 33.57 88.001 0 121.57-16.792 16.778-38.785 25.174-60.778 25.174-22.007 0-44-8.396-60.792-25.188l-364.453-364.439-364.453 364.439c-16.792 16.792-38.785 25.188-60.778 25.188-22.007 0-44.015-8.396-60.792-25.188-16.778-16.778-25.174-38.785-25.174-60.778s8.396-44 25.174-60.778l425.217-425.217c16.778-16.792 38.785-25.188 60.792-25.188 0 0 0.014 0 0.029 0 0 0 0.014 0 0.029 0 21.993 0 43.986 8.396 60.778 25.188z" horiz-adv-x="1022" />
<glyph unicode="&#xe667;" d="M427.52 460.814c0 0 0-0.014 0-0.029 0 0 0-0.014 0-0.029 0-22.042 8.409-44.069 25.228-60.888l425.885-425.87c33.608-33.622 88.139-33.622 121.761 0 16.804 16.818 25.213 38.846 25.213 60.873 0 22.042-8.409 44.069-25.228 60.888l-365.025 365.025 365.025 365.025c16.818 16.818 25.228 38.846 25.228 60.888s-8.409 44.084-25.228 60.888c-16.804 16.804-38.846 25.213-60.873 25.213s-44.069-8.409-60.873-25.213l-425.885-425.885c-16.818-16.804-25.228-38.846-25.228-60.888zM25.228 399.869l425.885-425.87c33.608-33.622 88.139-33.622 121.761 0 16.804 16.818 25.213 38.846 25.213 60.873 0 22.042-8.409 44.069-25.228 60.888l-365.025 365.025 365.025 365.025c16.818 16.818 25.228 38.846 25.228 60.888s-8.409 44.084-25.228 60.888c-16.804 16.804-38.846 25.213-60.873 25.213s-44.069-8.409-60.873-25.213l-425.885-425.885c-16.818-16.804-25.228-38.846-25.228-60.888 0 0 0-0.014 0-0.029 0 0 0-0.014 0-0.029 0-22.042 8.409-44.069 25.228-60.888z" horiz-adv-x="1026" />
<glyph unicode="&#xe668;" d="M598.087 460.771c0 0 0 0.014 0 0.029 0 0 0 0.014 0 0.029 0 22.042-8.409 44.069-25.228 60.888l-425.885 425.87c-33.608 33.622-88.139 33.622-121.761 0-16.804-16.818-25.213-38.846-25.213-60.888s8.409-44.069 25.228-60.888l365.025-365.025-365.025-365.011c-16.818-16.818-25.228-38.846-25.228-60.873 0-22.042 8.409-44.084 25.228-60.888 16.804-16.804 38.846-25.213 60.873-25.213s44.069 8.409 60.873 25.213l425.885 425.87c16.818 16.804 25.228 38.846 25.228 60.888zM1000.38 521.702l-425.885 425.885c-33.608 33.622-88.139 33.622-121.761 0-16.804-16.818-25.213-38.846-25.213-60.888s8.409-44.069 25.228-60.888l365.025-365.025-365.025-365.011c-16.818-16.818-25.228-38.846-25.228-60.873 0-22.042 8.409-44.084 25.228-60.888 16.804-16.804 38.846-25.213 60.873-25.213s44.069 8.409 60.873 25.213l425.885 425.885c16.818 16.804 25.228 38.846 25.228 60.888 0 0 0 0.014 0 0.029 0 0 0 0.014 0 0.029 0 22.013-8.409 44.055-25.228 60.859z" horiz-adv-x="1026" />
<glyph unicode="&#xe669;" d="M512 972.8c-282.764 0-512-229.236-512-512 0-282.778 229.236-512 512-512s512 229.222 512 512c0 282.764-229.236 512-512 512zM774.115 590.887c-11.65-15.065-21.882-31.547-35.161-44.983-91.184-92.063-182.949-183.488-274.587-275.083-31.973-31.944-70.082-31.944-101.742-0.269-27.749 27.806-55.895 55.215-83.148 83.503-12.741 13.209-23.767 28.047-35.586 42.148 0 13.818 0 27.622 0 41.425 11.182 23.441 26.899 41.723 54.365 45.422 22.435 3.033 42.403-2.636 58.333-19.458 17.928-18.877 35.643-37.982 58.078-61.947 10.473 13.237 17.276 23.767 25.893 32.454 68.891 69.387 139.823 136.861 206.617 208.218 37.315 39.895 93.707 49.163 126.941-14.13 0-12.443 0-24.858 0-37.301z" />
<glyph unicode="&#xe670;" d="M484.423 915.12c-267.519 0-484.422-216.308-484.422-483.146 0-266.824 216.903-483.174 484.422-483.174 267.533 0 481.926 216.35 481.926 483.174 0 266.838-214.393 483.146-481.926 483.146zM784.938 202.913c-3.064-3.972-54.942 34.287-54.942 34.287l-21.279-30.202c0 0 48.97-35.947 42.941-41.948-64.589-64.163-152.698-104.962-250.652-109.090-2.639-0.128-0.667 73.029-0.667 73.029l-33.536 0.184c0 0-1.787-46.629-1.532-73.114-80.463 4.086-154.315 32.812-213.811 78.917-12.299 9.476-23.974 19.747-34.968 30.698-4.142 4.1 39.735 42.969 39.735 42.969l-26.868 28.954c0 0-30.486-22.173-47.055-32.94-44.714 58.815-72.377 131.22-75.64 210.25-0.085 2.043 71.682-0.823 71.682-0.823l0.681 35.607c0 0-41.239-0.482-72.292-1.291 3.518 75.98 35.167 157.053 77.243 214.634 2.185 3.022 42.132-38.884 42.132-38.884l28.188 37.99c0 0-33.195 26.471-38.813 33.224 68.618 69.001 163.862 111.686 269.179 111.686 103.855 0 199.88-42.615 267.973-109.97-12.072-7.958-45.764-38.955-45.764-38.955l25.662-31.067c0 0 47.679 37.99 50.431 34.444 45.693-58.801 74.221-131.518 78.349-210.874-15.349-1.021-75.54-0.908-75.54-0.908l1.319-36.075c0 0 74.505 3.589 74.334 0.255-3.461-79.413-31.379-152.145-76.491-210.988zM482.11 772.962l-82.477-306.147c0 0-38.671-126.454 80.321-126.454 0 0 119.417 1.787 81.626 125.248l-79.47 307.353zM590.136 972.8h-220.067c-7.476 0-13.548-6.072-13.548-13.548v-71.1c0-7.49 6.072-13.533 13.548-13.533h220.067c7.476 0 13.548 6.043 13.548 13.533v71.1c0 7.476-6.072 13.548-13.548 13.548z" horiz-adv-x="966" />
<glyph unicode="&#xe671;" d="M924.83 462.994c-4.065 1.888-8.075 3.795-12.32 5.575-52.768 22.050-108.468 30.089-165.175 31.546-72.12 1.942-143.125-4.784-210.246-33.92-82.767-36.006-134.349-96.922-145.5-188.088-5.162-42.301-7.68-84.962-11.313-127.424-1.241-15.215-2.248-30.485-3.381-46.042h360.961c-3.579 19.37-5.683 39.279-5.683 59.675 0 132.892 79.098 247.043 192.656 298.679zM850.552 607.558c45.286 46.384 62.534 103.972 64.962 172.585-1.223 9.388-2.23 24.118-5.18 38.452-16.528 81.526-87.372 143.575-174.258 153.089-90.681 9.964-186.182-47.625-210.498-134.87-22.427-80.393-6.924-155.211 46.42-219.49 71.725-86.562 199.976-90.267 278.553-9.766zM404.773 531.895c43.938 43.758 60.088 98.63 62.732 158.233-1.133 52.66-15.485 99.799-54.333 136.147-54.531 51.078-119.565 62.732-190.031 43.686-68.002-18.327-110.411-63.505-125.896-132.244-13.705-60.646-2.518-118.018 29.19-171.11 59.854-100.177 195.804-116.975 278.338-34.711zM161.236 407.852c-77.516-27.805-129.978-79.728-147.316-161.632-6.834-32.409-7.68-66.113-10.863-99.26-1.403-13.831-1.978-27.751-2.95-42.319-0.036-0.683-0.072-1.295-0.108-1.942 36.456 0 71.077 0 106.76 0v0.036l138.18 0.018 0.576 1.888 65.124 219.58c0.108 0.288 0.27 0.378 0.378 0.701 11.906 34.028 24.694 67.696 37.463 102.317-61.977 5.791-125.626 2.734-187.243-19.388zM1042.417 415.819c-128.953 0-233.501-104.547-233.501-233.501 0-128.971 104.547-233.501 233.501-233.501s233.483 104.547 233.483 233.501c0 128.953-104.529 233.501-233.483 233.501zM1161.946 241.633c-5.306-6.87-9.982-14.37-16.043-20.503-41.6-41.995-83.451-83.685-125.23-125.464-14.604-14.586-31.96-14.586-46.402-0.126-12.662 12.679-25.485 25.179-37.913 38.074-5.809 6.025-10.845 12.787-16.223 19.208 0 6.313 0 12.59 0 18.902 5.090 10.701 12.266 19.028 24.801 20.701 10.216 1.385 19.316-1.187 26.6-8.867 8.183-8.615 16.259-17.32 26.492-28.255 4.784 6.043 7.877 10.863 11.798 14.802 31.438 31.654 63.793 62.426 94.242 94.961 16.996 18.201 42.733 22.409 57.894-6.439-0.018-5.647-0.018-11.313-0.018-16.996z" horiz-adv-x="1276" />
<glyph unicode="&#xe672;" d="M514.925 660.779c-112.399 0-203.543-91.13-203.543-203.557 0-112.399 91.144-203.528 203.543-203.528 112.413 0 203.557 91.115 203.557 203.528-0.015 112.413-91.144 203.557-203.557 203.557zM517.902 311.867c-80.502 0-145.776 65.244-145.776 145.746 0 80.517 65.273 145.776 145.776 145.776s145.761-65.259 145.761-145.776c0-80.502-65.259-145.746-145.761-145.746zM931.549 757.207l-43.206-30.343-40.549 47.038 39.3 37.805c-31.707 33.885-67.944 63.487-107.782 87.791l-33.682-46.124-81.098 40.549 16.478 51.975c-40.128 13.923-82.52 23.040-126.467 26.583l-39.213-67.218-40.52 67.538c-46.85-3.426-91.957-13.153-134.466-28.325l20.92-50.552-85.163-38.937-28.223 45.601c-37.747-22.808-72.285-50.363-102.846-81.824l36.193-44.062-43.801-51.074-43.017 34.408c-59.437-83.711-94.411-186.034-94.411-296.545 0-283.16 229.545-512.69 512.69-512.69 283.16 0 512.69 229.545 512.69 512.69 0.015 110.134-34.727 212.166-93.83 295.718zM514.925 118.69c-186.978 0-338.546 151.568-338.546 338.531 0 170.587 126.162 311.629 290.273 335.076l48.693 82.143 44.207-81.678c165.883-21.85 293.932-163.691 293.932-335.541-0.015-186.963-151.583-338.531-338.56-338.531zM437.486 630.363l75.421 158.13 91.638-165.433z" horiz-adv-x="1025" />
<glyph unicode="&#xe673;" d="M754.494 527.851c3.26 0 6.463-0.143 9.681-0.243v338.059c0 59.186-47.961 107.133-107.105 107.133h-449.954v-178.531c0-35.549-28.785-64.291-64.277-64.291h-142.839v-564.18c0-59.186 47.961-107.119 107.105-107.119h369.218c-24.767 45.158-38.867 97.009-38.867 152.163 0 175.071 141.939 317.010 317.038 317.010zM693.177 126.002c-6.392-6.406-6.392-16.788 0-23.165 3.132-3.289 7.393-4.776 11.64-4.776 4.133 0 8.38 1.487 11.526 4.776 6.378 6.378 6.378 16.759 0 23.165-6.421 6.392-16.774 6.392-23.165 0zM754.494 480.462c-146.815 0-265.831-119.031-265.831-265.845s119.031-265.831 265.831-265.831 265.831 119.016 265.831 265.831-119.031 265.845-265.831 265.845zM739.837 276.463c-5.42-5.248-11.526-8.866-18.246-11.325v-123.206c2.46-1.473 4.933-2.66 6.878-4.576 12.841-12.827 12.841-33.69 0-46.503-12.798-12.813-33.661-12.813-46.488 0-12.813 12.798-12.813 33.661 0 46.503 2.002 1.93 4.461 3.117 6.892 4.576v122.891c-7.050 2.488-13.585 6.22-19.033 11.64-19.405 19.419-19.405 50.778 0 70.169 0.472 0.658 1.487 0.972 2.116 1.63v-26.283c0-14.786 12.012-26.612 26.64-26.612h12.627c14.8 0 26.612 11.826 26.612 26.612v26.111c0.672-0.486 1.316-0.972 1.988-1.473 19.233-19.39 19.233-50.735 0.014-70.154zM852.861 159.82v-52.566c0-14.471-11.812-26.283-26.454-26.283h-12.813c-14.614 0-26.483 11.812-26.483 26.283v52.566c0 8.208 3.975 15.472 9.709 20.205l-9.709 36.65h16.43v62.232h-8.051l11.368 65.235 25.954-0.472 11.797-64.749h-7.893v-62.232h16.945l-10.21-36.979c5.82-4.933 9.409-11.997 9.409-19.891z" horiz-adv-x="1020" />
<glyph unicode="&#xe674;" d="M403.811 718.202h-251.162l-152.649-261.393 152.649-261.378h251.147l-160.038 261.393 160.053 261.378zM951.347 488.081l114.308 212.851-143.543 266.532-302.318 5.336-128.963-212.046h302.972l157.544-272.673zM963.296 430.798l-143.695-270.758-306.119 5.503 127.413-216.758 302.364 0.882 147.45 264.327-127.413 216.804zM923.405 481.468l-141.734 242.922h-302.957l147.389-243.56 297.302 0.639zM447.503 705.235l-147.723-236.719 147.723-251.542 142.813 246.601-142.813 241.66zM915.317 433.99h-285.626l-132.947-226.838h292.969l125.604 226.838z" horiz-adv-x="1091" />
<glyph unicode="&#xe675;" d="M425.916 546.784h-73.306l-44.559-76.311 44.559-76.269h73.306l-46.71 76.283 46.71 76.297zM585.733 479.604l33.362 62.123-41.881 77.793-88.249 1.553-37.636-61.895h88.434l45.969-79.574zM589.223 462.866l-41.938-79.018-89.331 1.595 37.166-63.249 88.263 0.256 43.035 77.152-37.194 63.263zM577.585 477.666l-41.368 70.912h-88.42l43.020-71.083 86.767 0.171zM438.68 542.995l-43.106-69.103 43.106-73.434 41.681 71.981-41.681 70.556zM575.22 463.82h-83.363l-38.818-66.197h85.514l36.667 66.197zM957.375 628.865c-75.556 64.175-151.825 127.566-229.333 189.39-61.895 49.388-125.927 96.055-189.219 143.663-6.168 4.644-13.846 7.308-20.826 10.883-3.333 0-6.667 0-10 0-10.385-5.655-21.653-10.143-31.012-17.137-119.346-89.075-238.721-178.164-352.112-274.789-33.177-28.248-64.716-58.576-95.272-89.659-12.265-12.45-19.872-29.473-29.601-44.402 0-164.005 0-328.009 0-492 1.282-5.1 2.407-10.257 3.832-15.314 13.818-49.573 45.955-79.246 96.582-88.776 1.923-0.342 3.746-1.254 5.598-1.909 270.673 0 541.317 0 811.989 0 4.473 1.083 8.96 2.066 13.405 3.248 50.428 13.519 80.984 45.613 90.685 97.166 0.342 1.923 1.254 3.746 1.909 5.598 0 163.99 0 327.995 0 492-13.305 34.53-39.716 59.174-66.625 82.038zM933.757 56.508c-0.484-0.613-0.954-1.225-1.439-1.823-99.787 71.283-199.561 142.58-299.775 214.133-35.869-23.348-71.881-46.14-107.081-70.129-10.071-6.866-16.738-6.952-26.881-0.043-35.186 24.017-71.197 46.781-107.181 70.243-99.446-71.041-198.563-141.853-297.696-212.652-0.613 0.655-1.239 1.353-1.852 2.009 80.927 82.864 161.854 165.743 243.621 249.461-100.186 78.135-199.831 155.842-299.491 233.564 0.37 0.727 0.769 1.453 1.154 2.151 52.65-20.855 105.3-41.71 159.503-63.192 0 73.078 0 144.546 0 216.47 210.686 0 420.176 0 630.876 0 0-72.009 0-143.463 0-216.427 54.003 21.425 106.426 42.208 158.848 62.992 0.513-0.698 1.040-1.396 1.553-2.080-99.503-77.579-199.019-155.187-299.391-233.478 82.052-84.047 163.649-167.623 245.231-251.199z" />
<glyph unicode="&#xe676;" d="M465.12 381.687c6.707 0 13.384 0 20.090 0 13.236 24.227 29.279 46.695 47.729 66.948-22.587 0-45.129 0-67.834 0 0 17.549 0 34.168 0 51.925 42.47 0 84.852 0 127.352 0 55.544 38.305 122.846 60.788 195.423 60.788 2.659 0 5.274-0.148 7.933-0.207 0.015 4.624 0 9.218 0.030 13.842 0.162 22.986-5.894 43.032-21.523 58.941-50.137 51.156-100.629 101.973-152.036 151.815-24.552 24.552-25.039 22.616-38.231 22.616-80.612 0-161.254 0-241.867 0-22.158-5.746-43.948-12.039-61.453-28.23-21.568-19.928-34.582-43.829-36.753-73.3-0.458-6.057-0.753-12.158-0.753-18.214-0.044-160.146 0.207-320.307-0.207-480.454-0.103-40.107 12.143-74.393 45.735-97.143 15.703-10.651 33.031-21.139 53.431-22.587 41.909 0 83.803 0 125.697 0-15.895 39.649-24.729 82.873-24.729 128.209 0 42.633 7.785 83.434 21.937 121.118 0.030 14.61 0.030 28.909 0.030 43.933zM406.962 214.908c-17.505 0-34.183 0-52.058 0 0 17.106 0 34.080 0 52.131 16.737 0 33.71 0 52.058 0 0-16.619 0-33.504 0-52.131zM406.962 329.541c-17.505 0-34.183 0-52.058 0 0 17.092 0 34.065 0 52.146 16.737 0 33.71 0 52.058 0 0-16.648 0-33.548 0-52.146zM406.962 448.413c-17.505 0-34.183 0-52.058 0 0 17.092 0 34.050 0 52.117 16.737 0 33.71 0 52.058 0 0-16.619 0-33.504 0-52.117zM389.56 577.597c-25.822 0.074-35.646 10.060-35.808 35.631-0.030 5.613-0.207 11.256 0.044 16.87 0.812 17.815 9.676 29.16 27.284 29.53 45.307 0.975 92.327 0.31 138.372 0.31 0-28.126 0-54.539 0-81.691-1.507-0.118-88.708-0.812-129.893-0.65zM379.264 950.125c-24.537 24.566-25.024 22.631-38.245 22.631-80.598 0-161.239 0-241.837 0-22.158-5.746-43.948-12.039-61.467-28.245-21.568-19.913-34.567-43.829-36.739-73.3-0.473-6.057-0.768-12.143-0.768-18.214-0.044-160.132 0.192-320.293-0.207-480.439-0.118-40.107 12.158-74.393 45.75-97.157 15.688-10.636 33.031-21.169 53.431-22.587 34.405 0 68.795 0 103.199 0v489.258c-20.489-0.118-41.126-0.162-55.854-0.118-25.807 0.103-35.66 10.075-35.823 35.66-0.030 5.613-0.177 11.242 0.059 16.826 0.812 17.845 9.676 29.205 27.284 29.574 21.169 0.428 42.707 0.532 64.333 0.517v19.544h283.687c-35.276 35.66-70.774 71.143-106.804 106.050zM111.841 664.946c16.737 0 33.725 0 52.072 0 0-16.634 0-33.548 0-52.131-17.52 0-34.198 0-52.072 0 0 17.077 0 34.035 0 52.131zM111.841 546.058c16.737 0 33.725 0 52.072 0 0-16.634 0-33.533 0-52.146-17.52 0-34.198 0-52.072 0 0 17.121 0 34.080 0 52.146zM111.841 431.44c16.737 0 33.725 0 52.072 0 0-16.648 0-33.533 0-52.146-17.52 0-34.198 0-52.072 0 0 17.106 0 34.080 0 52.146zM788.943 498.048c-151.667 0-274.632-122.964-274.632-274.632s122.964-274.617 274.632-274.617 274.617 122.95 274.617 274.617-122.95 274.632-274.617 274.632zM773.817 287.292c-5.599-5.421-11.906-9.159-18.849-11.7v-127.278c2.541-1.522 5.096-2.748 7.105-4.727 13.266-13.251 13.266-34.804 0-48.039-13.221-13.236-34.774-13.236-48.025 0-13.236 13.221-13.236 34.774 0 48.039 2.068 1.994 4.609 3.22 7.12 4.727v126.953c-7.283 2.57-14.034 6.426-19.662 12.025-20.046 20.061-20.046 52.456 0 72.488 0.487 0.68 1.536 1.005 2.186 1.684v-27.151c0-15.275 12.409-27.491 27.521-27.491h13.044c15.289 0 27.491 12.217 27.491 27.491v26.974c0.694-0.502 1.359-1.005 2.053-1.522 19.869-20.016 19.869-52.397 0.015-72.473zM890.562 166.809v-54.303c0-14.95-12.202-27.151-27.329-27.151h-13.236c-15.097 0-27.358 12.202-27.358 27.151v54.303c0 8.479 4.107 15.984 10.030 20.873l-10.030 37.861h16.973v64.289h-8.317l11.744 67.391 26.812-0.487 12.187-66.889h-8.154v-64.289h17.505l-10.518-38.201c5.983-5.096 9.691-12.394 9.691-20.548z" horiz-adv-x="1064" />
<glyph unicode="&#xe677;" d="M565.374 819.977c-20.301-51.635-44.552-101.776-69.321-151.487-41.004-82.18-101.072-147.018-183.956-188.195-55.213-27.384-111.359-52.842-167.736-77.697-36.349-16.034-67.956-38.073-91.978-69.206-85.326-110.598-64.278-258.263 47.656-340.945 114.319-84.407 286.537-41.607 347.224 87.237 24.496 52.023 44.538 106.202 69.767 157.822 30.444 62.267 68.387 119.434 126.014 161.069 69.235 49.983 145.323 86.935 225.118 115.727 161.874 58.431 209.156 266.969 87.122 388.917-121.761 121.732-326.751 77.324-389.908-83.243zM300.617 120.357c-35.128-34.639-93.573-34.467-128.341 0.374-35.444 35.515-35.271 94.349 0.302 129.361 35.314 34.711 93.53 34.51 128.284-0.388 35.472-35.659 35.357-94.219-0.244-129.347zM852.385 671.924c-35.128-34.826-92.481-34.783-128.312 0.101-35.731 34.826-35.946 94.464-0.474 129.333 35.257 34.668 93.314 34.668 128.37 0.057 35.515-35.084 35.731-94.492 0.417-129.491z" />
<glyph unicode="&#xe678;" d="M910.246 176.351h-796.478c-62.76 0-113.768-51.008-113.768-113.783s51.008-113.768 113.768-113.768h796.464c62.775 0 113.768 51.008 113.768 113.768s-50.979 113.783-113.754 113.783zM910.246 574.568h-796.478c-62.76 0-113.768-50.994-113.768-113.768 0-62.789 51.008-113.783 113.768-113.783h796.464c62.775 0 113.768 51.008 113.768 113.783 0.014 62.775-50.979 113.768-113.754 113.768zM910.246 972.8h-796.478c-62.76 0-113.768-50.994-113.768-113.768s51.008-113.783 113.768-113.783h796.464c62.775 0 113.768 51.008 113.768 113.783s-50.979 113.768-113.754 113.768z" />
<glyph unicode="&#xe679;" d="M912.792 302.455c-32.179 33.784-100.678 105.993-106.337 110.148 6.548-27.379-11.476-35.632-28.955-43.87-125.221-58.828-250.169-118.243-375.203-177.458-32.036-15.173-64.115-30.302-96.981-45.819-25.76 39.93-51.077 79.015-76.135 118.243-2.049 3.238-2.493 7.536-3.338 11.419-13.095 59.73-25.775 119.547-39.486 179.148-2.808 12.178-0.473 17.537 11.333 22.422 51.879 21.505 103.357 43.956 154.749 66.579 5.101 2.235 12.364 8.152 12.25 12.193-0.444 15.244-3.525 30.431-5.803 46.936-6.677-2.421-11.376-3.954-15.946-5.803-107.827-43.483-215.64-87.010-323.453-130.536-23.225-9.356-23.525-10.072-12.092-31.95 49.687-95.062 99.403-190.109 149.061-285.17 34.586-66.163 69.143-132.327 104.561-200.138 4.656 2.049 7.866 3.252 10.932 4.785 212.101 107.283 424.217 214.565 636.289 321.906 16.176 8.181 17.178 13.74 4.556 26.964zM576.458 728.978c16.562-18.769 34.414-36.406 51.034-55.16 4.212-4.742 7.45-11.935 7.808-18.21 1.576-27.007 1.977-54.057 2.694-81.121 1.734-63.613 3.224-127.255 5.229-190.854 0.587-18.31 5.989-21.133 22.494-13.367 24.041 11.29 47.409 24.428 72.253 33.469 26.606 9.714 42.509 23.884 37.695 54.315-0.845 5.272 19.686 289.268 28.139 425.764 0.43 7.020-3.926 16.605-9.298 21.305-24.485 21.462-50.317 41.349-75.19 62.338-6.591 5.602-11.963 6.82-20.158 3.525-41.349-16.562-82.869-32.752-124.561-48.398-9.829-3.653-12.364-9.026-12.092-19.012 0.759-25.503 5.602-129.691 6.404-156.167 0.201-6.275 3.353-13.668 7.55-18.425zM428.343 489.87c5.702-8.21 12.078-16.19 19.17-23.898l3.209-3.983c4.742-6.992 7.049-16.605 8.983-25.087 2.665-11.648 2.808-23.855 4.184-35.79 3.582-30.861 6.748-61.779 11.046-92.526 2.779-19.8 10.602-23.468 28.124-15.201 30.818 14.571 61.421 29.6 92.54 43.469 12.049 5.33 16.949 11.734 16.577 25.789-1.189 45.074-6.505 228.52-6.977 275.127-0.057 6.519-1.59 14.728-5.659 19.299-22.981 25.818-46.779 50.962-70.877 75.763-2.751 2.822-10.058 4.27-13.783 2.722-40.804-16.648-81.264-34.128-121.954-51.062-5.387-2.235-8.439-4.8-9.212-9.298l-0.258 0.817 5.86-129.433 39.028-56.707zM348.955 528.009c-39.386-17.408-78.9-34.529-118.601-51.163-9.141-3.84-11.405-8.152-9.098-18.095 11.433-49.257 21.892-98.744 32.938-148.087 1.404-6.261 3.152-12.852 6.49-18.196 16.505-26.305 33.311-52.438 50.805-78.069 2.235-3.295 10.416-6.060 13.783-4.527 37.881 17.135 75.433 35.016 112.842 53.126 4.083 1.991 6.762 6.891 8.367 8.625-6.433 56.98-12.364 110.263-18.654 163.489-0.501 4.169-3.095 8.439-5.674 11.963-18.54 25.546-37.609 50.69-55.876 76.436-5.115 7.235-9.513 7.98-17.322 4.499z" horiz-adv-x="921" />
<glyph unicode="&#xe680;" d="M349.189 299.544c37.461 7.775 80.985 13.709 132.782 14.879v120.329h-145.935c1.74-47.618 5.934-93.453 13.153-135.208zM364.667 723.212c32.126-8.959 70.885-16.177 117.305-17.917v172.212c-23.153-1.869-45.849-5.35-67.261-10.813-11.312-23.167-32.226-72.040-50.043-143.482zM334.881 495.608h147.091v147.076c-51.213 1.284-94.722 7.218-131.598 14.322-8.402-47.604-14.337-101.827-15.492-161.399zM276.449 434.737h-181.042c5.35-80.414 32.682-154.28 76.791-215.636 19.087 19.101 57.261 45.863 120.899 66.12-8.26 43.524-14.194 93.538-16.648 149.516zM309.859 213.167c-41.070-19.073-66.805-41.070-81.113-57.818 41.199-38.060 91.227-66.12 145.436-85.193l-11.398 5.934c0.014 0.014-28.474 49.444-52.925 137.076zM364.068 848.891l5.934 3.595c-44.679-16.177-86.349-39.344-122.754-69.116 15.492-13.167 37.589-28.060 66.791-41.199 23.738 70.985 50.029 106.72 50.029 106.72zM294.381 670.716c-50.043 16.077-84.608 35.749-106.12 53.082-51.798-63.781-84.594-141.841-91.684-228.19h178.731c1.141 69.116 8.944 126.82 19.073 175.108zM748.335 495.608h180.458c-7.090 86.349-39.9 164.994-92.269 228.774-21.412-17.347-55.977-37.589-107.29-53.666 10.699-48.288 17.932-105.992 19.101-175.108zM417.734 57.017c20.828-4.779 42.226-8.845 64.223-10.699v205.622c-47.589-2.454-86.948-9.544-119.744-19.686 19.672-88.217 44.694-150.215 55.521-175.236zM713.77 213.167c-24.451-87.632-53.082-137.062-53.082-137.062l-14.879-7.675c56.077 18.388 107.29 47.005 149.644 86.349-13.723 16.034-39.344 38.745-81.684 58.388zM747.165 434.737c-1.755-55.393-7.803-105.436-16.648-148.945 65.521-20.828 102.996-48.189 122.069-67.247 44.694 61.912 71.584 135.792 76.919 216.192h-182.341zM540.945 251.94v-205.622c22.126 1.855 43.538 4.765 64.95 10.114 10.842 24.451 35.835 87.062 55.521 176.406-32.839 9.558-72.154 16.648-120.471 19.101zM709.562 741.6c29.8 13.723 52.482 28.616 67.989 42.368-37.618 30.357-79.858 53.624-126.292 69.701l8.274-4.765c0-0.014 26.291-35.749 50.029-107.304zM608.919 867.393c-21.997 4.765-44.679 8.83-67.975 10.114v-172.797c46.562 2.325 85.892 9.544 118.588 18.502-18.388 72.026-39.315 121.499-50.614 144.181zM673.841 656.422c-37.475-7.104-80.985-12.454-132.897-14.322v-146.506h147.775c-1.141 59.587-6.491 113.809-14.879 160.828zM687.579 434.737h-146.634v-120.329c52.511-1.17 96.021-6.519 134.066-14.322 6.605 41.213 10.813 87.048 12.568 134.651zM512.014 972.8c-282.313 0-512.014-229.702-512.014-512 0-282.313 229.702-512.014 512.014-512.014s512 229.702 512 512.014c-0.014 282.298-229.687 512-512 512zM512.014-3.468c-255.993 0-464.254 208.275-464.254 464.268 0 255.979 208.261 464.239 464.254 464.239s464.239-208.261 464.239-464.239c0-255.993-208.247-464.268-464.239-464.268z" />
<glyph unicode="&#xe681;" d="M921.6 972.8h-819.214c-56.548 0-102.386-45.852-102.386-102.4v-819.2c0-56.548 45.838-102.4 102.386-102.4h819.214c56.562 0 102.4 45.852 102.4 102.4v819.2c0 56.548-45.838 102.4-102.4 102.4zM244.352 182.315c-34.133-6.428-67.641 16.114-74.894 50.347-0.313 1.479-0.896 2.916-1.351 4.38 0 5.831 0 11.634 0 17.465 1.18 4.039 2.19 8.149 3.541 12.132 10.226 29.895 40.164 47.801 71.367 42.766 30.692-4.964 53.632-31.531 54.030-62.549 0.384-31.403-21.959-58.752-52.693-64.54zM244.338 397.241c-34.19-6.428-67.627 16.057-74.894 50.361-0.313 1.479-0.896 2.901-1.351 4.38 0 5.817 0 11.634 0 17.465 1.18 4.039 2.19 8.149 3.556 12.132 10.212 29.909 40.149 47.815 71.367 42.766 30.692-4.964 53.632-31.531 54.016-62.578 0.398-31.417-21.916-58.724-52.693-64.526zM244.338 612.196c-34.19-6.428-67.627 16.057-74.894 50.332-0.313 1.493-0.896 2.93-1.351 4.409 0 5.803 0 11.62 0 17.465 1.18 4.039 2.19 8.135 3.556 12.132 10.212 29.909 40.149 47.787 71.367 42.766 30.692-4.964 53.632-31.545 54.016-62.578 0.398-31.431-21.916-58.738-52.693-64.526zM855.893 237.042c-2.603-7.31-4.295-15.118-8.007-21.817-11.292-20.395-28.772-32.725-52.309-33.394-32.412-0.924-64.896-0.498-97.337-0.512-96.668-0.028-193.337 0.114-290.005-0.057-38.215-0.057-67.47 26.894-68.167 63.559-0.626 33.678 25.202 63.104 58.837 64.839 27.008 1.38 54.13 0.725 81.195 0.74 102.044 0.028 204.075 0 306.133-0.071 31.388-0.028 54.67-14.578 64.939-40.576 1.948-4.935 3.157-10.169 4.708-15.246 0.014-5.831 0.014-11.648 0.014-17.465zM855.893 451.982c-4.452-10.112-7.481-21.163-13.625-30.123-10.951-15.915-27.193-24.732-46.692-25.159-32.412-0.654-64.896-0.427-97.323-0.455-96.683-0.028-193.351 0.128-290.020-0.043-38.272-0.071-67.47 26.837-68.167 63.531-0.64 33.692 25.188 63.118 58.823 64.839 27.008 1.408 54.13 0.754 81.209 0.768 102.059 0.028 204.089 0 306.133-0.071 31.388-0.028 54.67-14.592 64.939-40.59 1.948-4.921 3.157-10.155 4.708-15.232 0.014-5.845 0.014-11.648 0.014-17.465zM855.893 666.908c-4.452-10.112-7.481-21.163-13.625-30.108-10.951-15.915-27.193-24.747-46.692-25.159-32.412-0.668-64.896-0.441-97.323-0.455-96.683-0.028-193.351 0.114-290.020-0.057-38.272-0.071-67.47 26.837-68.167 63.545-0.64 33.692 25.188 63.104 58.823 64.839 27.008 1.408 54.13 0.74 81.209 0.74 102.059 0.057 204.089 0.014 306.133-0.057 31.388-0.028 54.67-14.578 64.939-40.576 1.948-4.935 3.157-10.155 4.708-15.232 0.014-5.831 0.014-11.662 0.014-17.479z" />
<glyph unicode="&#xe682;" d="M974.649 575.73h-371.684c-26.268 0-47.573-21.348-47.573-47.701v-40.092l-75.62-38.329 75.62-5.305v-85.148c0-26.382 21.305-47.73 47.573-47.73h371.726c26.268 0 47.588 21.348 47.588 47.73v168.846c-0.028 26.382-21.348 47.73-47.63 47.73zM705.138 413.81c-16.469 0-29.852 12.999-29.852 29.042 0 16.057 13.355 29.099 29.852 29.099 16.498 0 29.852-13.042 29.852-29.099 0-16.043-13.355-29.042-29.852-29.042zM804.565 413.81c-16.455 0-29.838 12.999-29.838 29.042 0 16.057 13.355 29.099 29.838 29.099s29.852-13.042 29.852-29.099c0-16.043-13.383-29.042-29.852-29.042zM899.058 413.81c-16.455 0-29.838 12.999-29.838 29.042 0 16.057 13.34 29.099 29.838 29.099 16.455 0 29.852-13.042 29.852-29.099-0.014-16.043-13.397-29.042-29.852-29.042zM365.141 393.97c2.261 0.64 5.333 2.546 6.684 1.65 23.652-14.421 18.048-37.689 16.171-58.823-1.607-18.29-11.648-29.625-32.484-28.558-26.908 1.351-53.931 0.512-80.782 2.418-17.65 1.294-19.044-4.124-13.454-19.086 15.943-42.681 31.545-85.589 45.668-128.896 9.671-29.54 3.2-36.708-27.719-35.94-25.401 0.654-47.545 10.98-68.452 24.021-50.731 31.673-94.265 72.505-139.548 111.076-11.463 9.756-15.374 19.655-10.197 35.868 20.423 64.284 10.34 124.217-25.273 182.059-33.124 53.774-44.103 114.617-29.284 175.744 32.768 135.211 169.358 160.981 257.906 124.174 22.4-9.316 48-14.777 61.54-38.741-2.66-1.095-0.114-3.413-0.028 0 45.767-20.38 91.719-83.541 68.039-144.654-8.107-20.964-5.262-36.252 11.691-51.385 12.516-11.122 22.912-25.060 32.512-38.955 14.066-20.494 9.202-34.105-14.706-37.774-14.535-2.233-20.124-5.177-15.474-20.665 3.826-12.9-3.129-19.442-16.455-20.58-18.617-1.593-37.134-4.124-55.708-6.229-2.076-0.313-21.632-5.703-14.692-9.387 16.725-8.86 28.544-17.465 44.046-17.337z" horiz-adv-x="1022" />
<glyph unicode="&#xe683;" d="M216.558 284.326l-69.235-136.022h37.782l11.64 25.508h41.677l0.929-25.508h35.437l-11.434 136.022h-46.796zM210.023 202.83l20.197 44.2c2.301 4.957 4.175 10.106 5.65 15.446-0.221-3.482-0.339-7.553-0.339-12.201l0.177-7.981 1.579-39.464h-27.263zM979.254 458.882v415.973c0 54.084-43.831 97.945-97.915 97.945h-783.395c-54.099 0-97.945-43.86-97.945-97.945v-783.424c0-54.069 43.846-97.93 97.945-97.93h507.736c45.808-28.178 99.553-44.716 157.296-44.716 166.251 0 301.019 134.783 301.019 301.019 0 81.303-32.383 154.92-84.741 209.078zM107.534 863.982h406.635v-113.42h-406.635v113.42zM107.534 682.522h406.635v-113.42h-406.635v113.42zM108.67 91.593v243.851h365.828c-4.662-15.741-8.011-32.043-10.047-48.773h-148.208v-26.098h146.275c-0.118-3.6-0.546-7.126-0.546-10.755 0-3.26 0.369-6.418 0.487-9.648h-146.216v-26.083h148.031c0.634-5.355 1.52-10.637 2.434-15.889h-150.465v-26.098h156.219c7.686-28.768 19.459-55.81 34.787-80.507h-398.58zM501.039 397.835h-391.233v113.42h504.343c-47.165-26.909-86.319-66.152-113.111-113.42zM732.615 321.665c-7.052-6.816-15.004-11.522-23.737-14.738v-160.335c3.187-1.918 6.418-3.423 8.94-5.96 16.73-16.73 16.73-43.875 0-60.516-16.671-16.7-43.801-16.7-60.487 0-16.656 16.641-16.656 43.787 0 60.516 2.567 2.538 5.798 4.042 8.97 5.96v159.922c-9.206 3.216-17.704 8.099-24.77 15.151-25.272 25.257-25.272 66.078 0 91.321 0.605 0.841 1.918 1.239 2.774 2.124v-34.197c0-19.253 15.594-34.655 34.669-34.655h16.435c19.267 0 34.625 15.402 34.625 34.655v34.005c0.885-0.679 1.697-1.298 2.582-1.918 25.006-25.242 25.006-66.078 0-91.335zM576.839 570.222v296.327h296.312v-296.327h-296.312zM879.702 169.902v-68.424c0-18.81-15.387-34.183-34.433-34.183h-16.671c-19.031 0-34.448 15.373-34.448 34.183v68.424c0 10.666 5.164 20.093 12.628 26.29l-12.628 47.681h21.406v80.994h-10.489l14.782 84.888 33.769-0.634 15.358-84.254h-10.253v-80.994h22.041l-13.292-48.109c7.568-6.418 12.23-15.609 12.23-25.862zM671.892 125.894c-8.321-8.35-8.321-21.864 0-30.155 4.072-4.293 9.604-6.24 15.151-6.24 5.355 0 10.917 1.947 14.989 6.226 8.306 8.306 8.306 21.82 0 30.155-8.335 8.291-21.82 8.291-30.14 0.015z" horiz-adv-x="1064" />
<glyph unicode="&#xe684;" d="M957.375 628.865c-75.556 64.175-151.825 127.566-229.333 189.39-61.895 49.388-125.927 96.055-189.219 143.663-6.168 4.644-13.846 7.308-20.826 10.883-3.333 0-6.667 0-10 0-10.385-5.655-21.653-10.143-31.012-17.137-119.346-89.075-238.721-178.164-352.112-274.789-33.177-28.248-64.716-58.576-95.272-89.659-12.265-12.45-19.872-29.473-29.601-44.402 0-164.005 0-328.009 0-492 1.282-5.1 2.407-10.257 3.832-15.314 13.818-49.573 45.955-79.246 96.582-88.776 1.923-0.342 3.746-1.254 5.598-1.909 270.673 0 541.317 0 811.989 0 4.473 1.083 8.96 2.066 13.405 3.248 50.428 13.519 80.984 45.613 90.685 97.166 0.342 1.923 1.254 3.746 1.909 5.598 0 163.99 0 327.995 0 492-13.305 34.53-39.716 59.174-66.625 82.038zM933.757 56.508c-0.484-0.613-0.954-1.225-1.439-1.823-99.787 71.283-199.561 142.58-299.775 214.133-35.869-23.348-71.881-46.14-107.081-70.129-10.071-6.866-16.738-6.952-26.881-0.043-35.186 24.017-71.197 46.781-107.181 70.243-99.446-71.041-198.563-141.853-297.696-212.652-0.613 0.655-1.239 1.353-1.852 2.009 80.927 82.864 161.854 165.743 243.621 249.461-100.186 78.135-199.831 155.842-299.491 233.564 0.37 0.727 0.769 1.453 1.154 2.151 52.65-20.855 105.3-41.71 159.503-63.192 0 73.078 0 144.546 0 216.47 210.686 0 420.176 0 630.876 0 0-72.009 0-143.463 0-216.427 54.003 21.425 106.426 42.208 158.848 62.992 0.513-0.698 1.040-1.396 1.553-2.080-99.503-77.579-199.019-155.187-299.391-233.478 82.052-84.047 163.649-167.623 245.231-251.199zM269.077 600.388h491.458v-30.869h-491.458v30.869zM269.077 512.538h491.458v-30.869h-491.458v30.869zM269.077 427.067h273.023v-30.869h-273.023v30.869zM416.272 353.463h204.19v-30.869h-204.19v30.869z" />
</font>
</defs>
</svg>
